<svg width="91" height="35" viewBox="0 0 91 35" fill="none" xmlns="http://www.w3.org/2000/svg">
<g filter="url(#filter0_d)">
<path d="M34.032 7.186C35.4787 7.186 36.5893 7.44267 37.364 7.956C38.1387 8.46 38.526 9.29067 38.526 10.448C38.526 11.6147 38.134 12.4593 37.35 12.982C36.566 13.4953 35.446 13.752 33.99 13.752H33.304V17H31.12V7.438C31.596 7.34467 32.1 7.27933 32.632 7.242C33.164 7.20467 33.6307 7.186 34.032 7.186ZM34.172 9.048C34.0133 9.048 33.8547 9.05267 33.696 9.062C33.5467 9.07133 33.416 9.08067 33.304 9.09V11.89H33.99C34.746 11.89 35.3153 11.7873 35.698 11.582C36.0807 11.3767 36.272 10.994 36.272 10.434C36.272 10.1633 36.2207 9.93933 36.118 9.762C36.0247 9.58467 35.8847 9.44467 35.698 9.342C35.5207 9.23 35.3013 9.15533 35.04 9.118C34.7787 9.07133 34.4893 9.048 34.172 9.048ZM44.8618 8.978C43.8444 8.978 43.1071 9.26267 42.6498 9.832C42.2018 10.392 41.9778 11.162 41.9778 12.142C41.9778 12.618 42.0338 13.052 42.1458 13.444C42.2578 13.8267 42.4258 14.158 42.6498 14.438C42.8738 14.718 43.1538 14.9373 43.4898 15.096C43.8258 15.2453 44.2178 15.32 44.6658 15.32C44.9084 15.32 45.1138 15.3153 45.2818 15.306C45.4591 15.2967 45.6131 15.278 45.7438 15.25V11.876H47.9278V16.678C47.6664 16.7807 47.2464 16.888 46.6678 17C46.0891 17.1213 45.3751 17.182 44.5258 17.182C43.7978 17.182 43.1351 17.07 42.5378 16.846C41.9498 16.622 41.4458 16.2953 41.0258 15.866C40.6058 15.4367 40.2791 14.9093 40.0458 14.284C39.8218 13.6587 39.7098 12.9447 39.7098 12.142C39.7098 11.33 39.8358 10.6113 40.0878 9.986C40.3398 9.36067 40.6851 8.83333 41.1238 8.404C41.5624 7.96533 42.0758 7.634 42.6638 7.41C43.2611 7.186 43.8958 7.074 44.5678 7.074C45.0251 7.074 45.4358 7.10667 45.7998 7.172C46.1731 7.228 46.4904 7.298 46.7518 7.382C47.0224 7.45667 47.2418 7.536 47.4098 7.62C47.5871 7.704 47.7131 7.76933 47.7878 7.816L47.1578 9.566C46.8591 9.40733 46.5138 9.272 46.1218 9.16C45.7391 9.03867 45.3191 8.978 44.8618 8.978ZM52.1438 15.222C52.2465 15.2313 52.3632 15.2407 52.4938 15.25C52.6338 15.25 52.7972 15.25 52.9838 15.25C54.0758 15.25 54.8832 14.9747 55.4058 14.424C55.9378 13.8733 56.2038 13.1127 56.2038 12.142C56.2038 11.1247 55.9518 10.3547 55.4478 9.832C54.9438 9.30933 54.1458 9.048 53.0538 9.048C52.9045 9.048 52.7505 9.05267 52.5918 9.062C52.4332 9.062 52.2838 9.07133 52.1438 9.09V15.222ZM58.4578 12.142C58.4578 12.982 58.3272 13.7147 58.0658 14.34C57.8045 14.9653 57.4312 15.4833 56.9458 15.894C56.4698 16.3047 55.8865 16.6127 55.1958 16.818C54.5052 17.0233 53.7305 17.126 52.8718 17.126C52.4798 17.126 52.0225 17.1073 51.4998 17.07C50.9772 17.042 50.4638 16.9767 49.9598 16.874V7.424C50.4638 7.33067 50.9865 7.27 51.5278 7.242C52.0785 7.20467 52.5498 7.186 52.9418 7.186C53.7725 7.186 54.5238 7.27933 55.1958 7.466C55.8772 7.65267 56.4605 7.94667 56.9458 8.348C57.4312 8.74933 57.8045 9.26267 58.0658 9.888C58.3272 10.5133 58.4578 11.2647 58.4578 12.142ZM34.212 31.168C33.628 31.168 33.124 31.088 32.7 30.928C32.276 30.76 31.924 30.532 31.644 30.244C31.372 29.948 31.168 29.6 31.032 29.2C30.904 28.792 30.84 28.344 30.84 27.856V22.684H32.712V27.7C32.712 28.036 32.748 28.324 32.82 28.564C32.9 28.796 33.004 28.988 33.132 29.14C33.268 29.284 33.428 29.388 33.612 29.452C33.804 29.516 34.012 29.548 34.236 29.548C34.692 29.548 35.06 29.408 35.34 29.128C35.628 28.848 35.772 28.372 35.772 27.7V22.684H37.644V27.856C37.644 28.344 37.576 28.792 37.44 29.2C37.304 29.608 37.096 29.96 36.816 30.256C36.536 30.544 36.18 30.768 35.748 30.928C35.316 31.088 34.804 31.168 34.212 31.168ZM43.1284 26.272C42.9684 26.232 42.7804 26.192 42.5644 26.152C42.3484 26.104 42.1164 26.08 41.8684 26.08C41.7564 26.08 41.6204 26.092 41.4604 26.116C41.3084 26.132 41.1924 26.152 41.1124 26.176V31H39.3244V25.024C39.6444 24.912 40.0204 24.808 40.4524 24.712C40.8924 24.608 41.3804 24.556 41.9164 24.556C42.0124 24.556 42.1284 24.564 42.2644 24.58C42.4004 24.588 42.5364 24.604 42.6724 24.628C42.8084 24.644 42.9444 24.668 43.0804 24.7C43.2164 24.724 43.3324 24.756 43.4284 24.796L43.1284 26.272ZM46.1989 29.716C46.5269 29.716 46.7589 29.684 46.8949 29.62C47.0309 29.556 47.0989 29.432 47.0989 29.248C47.0989 29.104 47.0109 28.98 46.8349 28.876C46.6589 28.764 46.3909 28.64 46.0309 28.504C45.7509 28.4 45.4949 28.292 45.2629 28.18C45.0389 28.068 44.8469 27.936 44.6869 27.784C44.5269 27.624 44.4029 27.436 44.3149 27.22C44.2269 27.004 44.1829 26.744 44.1829 26.44C44.1829 25.848 44.4029 25.38 44.8429 25.036C45.2829 24.692 45.8869 24.52 46.6549 24.52C47.0389 24.52 47.4069 24.556 47.7589 24.628C48.1109 24.692 48.3909 24.764 48.5989 24.844L48.2869 26.236C48.0789 26.164 47.8509 26.1 47.6029 26.044C47.3629 25.988 47.0909 25.96 46.7869 25.96C46.2269 25.96 45.9469 26.116 45.9469 26.428C45.9469 26.5 45.9589 26.564 45.9829 26.62C46.0069 26.676 46.0549 26.732 46.1269 26.788C46.1989 26.836 46.2949 26.892 46.4149 26.956C46.5429 27.012 46.7029 27.076 46.8949 27.148C47.2869 27.292 47.6109 27.436 47.8669 27.58C48.1229 27.716 48.3229 27.868 48.4669 28.036C48.6189 28.196 48.7229 28.376 48.7789 28.576C48.8429 28.776 48.8749 29.008 48.8749 29.272C48.8749 29.896 48.6389 30.368 48.1669 30.688C47.7029 31.008 47.0429 31.168 46.1869 31.168C45.6269 31.168 45.1589 31.12 44.7829 31.024C44.4149 30.928 44.1589 30.848 44.0149 30.784L44.3149 29.332C44.6189 29.452 44.9309 29.548 45.2509 29.62C45.5709 29.684 45.8869 29.716 46.1989 29.716ZM44.7949 22.324L45.4549 21.532L46.6549 22.456L47.8549 21.532L48.5389 22.324L46.6549 23.968L44.7949 22.324ZM50.2111 24.904C50.5151 24.816 50.9071 24.736 51.3871 24.664C51.8671 24.584 52.3711 24.544 52.8991 24.544C53.4351 24.544 53.8791 24.616 54.2311 24.76C54.5911 24.896 54.8751 25.092 55.0831 25.348C55.2911 25.604 55.4391 25.908 55.5271 26.26C55.6151 26.612 55.6591 27.004 55.6591 27.436V31H53.8711V27.652C53.8711 27.076 53.7951 26.668 53.6431 26.428C53.4911 26.188 53.2071 26.068 52.7911 26.068C52.6631 26.068 52.5271 26.076 52.3831 26.092C52.2391 26.1 52.1111 26.112 51.9991 26.128V31H50.2111V24.904ZM59.6895 29.752C59.8655 29.752 60.0335 29.748 60.1935 29.74C60.3535 29.732 60.4815 29.72 60.5775 29.704V28.348C60.5055 28.332 60.3975 28.316 60.2535 28.3C60.1095 28.284 59.9775 28.276 59.8575 28.276C59.6895 28.276 59.5295 28.288 59.3775 28.312C59.2335 28.328 59.1055 28.364 58.9935 28.42C58.8815 28.476 58.7935 28.552 58.7295 28.648C58.6655 28.744 58.6335 28.864 58.6335 29.008C58.6335 29.288 58.7255 29.484 58.9095 29.596C59.1015 29.7 59.3615 29.752 59.6895 29.752ZM59.5455 24.52C60.0735 24.52 60.5135 24.58 60.8655 24.7C61.2175 24.82 61.4975 24.992 61.7055 25.216C61.9215 25.44 62.0735 25.712 62.1615 26.032C62.2495 26.352 62.2935 26.708 62.2935 27.1V30.82C62.0375 30.876 61.6815 30.94 61.2255 31.012C60.7695 31.092 60.2175 31.132 59.5695 31.132C59.1615 31.132 58.7895 31.096 58.4535 31.024C58.1255 30.952 57.8415 30.836 57.6015 30.676C57.3615 30.508 57.1775 30.292 57.0495 30.028C56.9215 29.764 56.8575 29.44 56.8575 29.056C56.8575 28.688 56.9295 28.376 57.0735 28.12C57.2255 27.864 57.4255 27.66 57.6735 27.508C57.9215 27.356 58.2055 27.248 58.5255 27.184C58.8455 27.112 59.1775 27.076 59.5215 27.076C59.7535 27.076 59.9575 27.088 60.1335 27.112C60.3175 27.128 60.4655 27.152 60.5775 27.184V27.016C60.5775 26.712 60.4855 26.468 60.3015 26.284C60.1175 26.1 59.7975 26.008 59.3415 26.008C59.0375 26.008 58.7375 26.032 58.4415 26.08C58.1455 26.12 57.8895 26.18 57.6735 26.26L57.4455 24.82C57.5495 24.788 57.6775 24.756 57.8295 24.724C57.9895 24.684 58.1615 24.652 58.3455 24.628C58.5295 24.596 58.7215 24.572 58.9215 24.556C59.1295 24.532 59.3375 24.52 59.5455 24.52ZM68.6051 29.716C68.9331 29.716 69.1651 29.684 69.3011 29.62C69.4371 29.556 69.5051 29.432 69.5051 29.248C69.5051 29.104 69.4171 28.98 69.2411 28.876C69.0651 28.764 68.7971 28.64 68.4371 28.504C68.1571 28.4 67.9011 28.292 67.6691 28.18C67.4451 28.068 67.2531 27.936 67.0931 27.784C66.9331 27.624 66.8091 27.436 66.7211 27.22C66.6331 27.004 66.5891 26.744 66.5891 26.44C66.5891 25.848 66.8091 25.38 67.2491 25.036C67.6891 24.692 68.2931 24.52 69.0611 24.52C69.4451 24.52 69.8131 24.556 70.1651 24.628C70.5171 24.692 70.7971 24.764 71.0051 24.844L70.6931 26.236C70.4851 26.164 70.2571 26.1 70.0091 26.044C69.7691 25.988 69.4971 25.96 69.1931 25.96C68.6331 25.96 68.3531 26.116 68.3531 26.428C68.3531 26.5 68.3651 26.564 68.3891 26.62C68.4131 26.676 68.4611 26.732 68.5331 26.788C68.6051 26.836 68.7011 26.892 68.8211 26.956C68.9491 27.012 69.1091 27.076 69.3011 27.148C69.6931 27.292 70.0171 27.436 70.2731 27.58C70.5291 27.716 70.7291 27.868 70.8731 28.036C71.0251 28.196 71.1291 28.376 71.1851 28.576C71.2491 28.776 71.2811 29.008 71.2811 29.272C71.2811 29.896 71.0451 30.368 70.5731 30.688C70.1091 31.008 69.4491 31.168 68.5931 31.168C68.0331 31.168 67.5651 31.12 67.1891 31.024C66.8211 30.928 66.5651 30.848 66.4211 30.784L66.7211 29.332C67.0251 29.452 67.3371 29.548 67.6571 29.62C67.9771 29.684 68.2931 29.716 68.6051 29.716ZM72.3173 27.892C72.3173 27.332 72.4013 26.844 72.5693 26.428C72.7453 26.004 72.9733 25.652 73.2533 25.372C73.5333 25.092 73.8533 24.88 74.2133 24.736C74.5813 24.592 74.9573 24.52 75.3413 24.52C76.2373 24.52 76.9453 24.796 77.4653 25.348C77.9853 25.892 78.2453 26.696 78.2453 27.76C78.2453 27.864 78.2413 27.98 78.2333 28.108C78.2253 28.228 78.2173 28.336 78.2093 28.432H74.1533C74.1933 28.8 74.3653 29.092 74.6693 29.308C74.9733 29.524 75.3813 29.632 75.8933 29.632C76.2213 29.632 76.5413 29.604 76.8533 29.548C77.1733 29.484 77.4333 29.408 77.6333 29.32L77.8733 30.772C77.7773 30.82 77.6493 30.868 77.4893 30.916C77.3293 30.964 77.1493 31.004 76.9493 31.036C76.7573 31.076 76.5493 31.108 76.3253 31.132C76.1013 31.156 75.8773 31.168 75.6533 31.168C75.0853 31.168 74.5893 31.084 74.1653 30.916C73.7493 30.748 73.4013 30.52 73.1213 30.232C72.8493 29.936 72.6453 29.588 72.5093 29.188C72.3813 28.788 72.3173 28.356 72.3173 27.892ZM76.5173 27.208C76.5093 27.056 76.4813 26.908 76.4333 26.764C76.3933 26.62 76.3253 26.492 76.2293 26.38C76.1413 26.268 76.0253 26.176 75.8813 26.104C75.7453 26.032 75.5733 25.996 75.3653 25.996C75.1653 25.996 74.9933 26.032 74.8493 26.104C74.7053 26.168 74.5853 26.256 74.4893 26.368C74.3933 26.48 74.3173 26.612 74.2613 26.764C74.2133 26.908 74.1773 27.056 74.1533 27.208H76.5173ZM82.1452 31.12C81.6252 31.112 81.2012 31.056 80.8732 30.952C80.5532 30.848 80.2972 30.704 80.1052 30.52C79.9212 30.328 79.7932 30.1 79.7212 29.836C79.6572 29.564 79.6252 29.26 79.6252 28.924V21.976L81.4132 21.688V28.564C81.4132 28.724 81.4252 28.868 81.4492 28.996C81.4732 29.124 81.5172 29.232 81.5812 29.32C81.6532 29.408 81.7532 29.48 81.8812 29.536C82.0092 29.592 82.1812 29.628 82.3972 29.644L82.1452 31.12ZM86.0098 29.752C86.1858 29.752 86.3538 29.748 86.5138 29.74C86.6738 29.732 86.8018 29.72 86.8978 29.704V28.348C86.8258 28.332 86.7178 28.316 86.5738 28.3C86.4298 28.284 86.2978 28.276 86.1778 28.276C86.0098 28.276 85.8498 28.288 85.6978 28.312C85.5538 28.328 85.4258 28.364 85.3138 28.42C85.2018 28.476 85.1138 28.552 85.0498 28.648C84.9858 28.744 84.9538 28.864 84.9538 29.008C84.9538 29.288 85.0458 29.484 85.2298 29.596C85.4218 29.7 85.6818 29.752 86.0098 29.752ZM85.8658 24.52C86.3938 24.52 86.8338 24.58 87.1858 24.7C87.5378 24.82 87.8178 24.992 88.0258 25.216C88.2418 25.44 88.3938 25.712 88.4818 26.032C88.5698 26.352 88.6138 26.708 88.6138 27.1V30.82C88.3578 30.876 88.0018 30.94 87.5458 31.012C87.0898 31.092 86.5378 31.132 85.8898 31.132C85.4818 31.132 85.1098 31.096 84.7738 31.024C84.4458 30.952 84.1618 30.836 83.9218 30.676C83.6818 30.508 83.4978 30.292 83.3698 30.028C83.2418 29.764 83.1778 29.44 83.1778 29.056C83.1778 28.688 83.2498 28.376 83.3938 28.12C83.5458 27.864 83.7458 27.66 83.9938 27.508C84.2418 27.356 84.5258 27.248 84.8458 27.184C85.1658 27.112 85.4978 27.076 85.8418 27.076C86.0738 27.076 86.2778 27.088 86.4538 27.112C86.6378 27.128 86.7858 27.152 86.8978 27.184V27.016C86.8978 26.712 86.8058 26.468 86.6218 26.284C86.4378 26.1 86.1178 26.008 85.6618 26.008C85.3578 26.008 85.0578 26.032 84.7618 26.08C84.4658 26.12 84.2098 26.18 83.9938 26.26L83.7658 24.82C83.8698 24.788 83.9978 24.756 84.1498 24.724C84.3098 24.684 84.4818 24.652 84.6658 24.628C84.8498 24.596 85.0418 24.572 85.2418 24.556C85.4498 24.532 85.6578 24.52 85.8658 24.52Z" fill="white"/>
</g>
<g filter="url(#filter1_d)">
<path d="M7.95077 31C2.82867 28.1132 1.48013 25.3808 2.25113 21.6489C2.82031 18.8933 4.68409 16.6513 4.86279 13.9009C5.65894 15.3498 5.99161 16.3945 6.08056 17.9085C8.61271 14.8061 10.286 10.5114 10.3851 6C10.3851 6 16.9804 9.87521 17.4132 15.7288C17.9809 14.5222 18.2668 12.606 17.699 11.3641C19.4023 12.6061 29.3718 23.6315 16.3486 31C18.7971 26.2325 16.9803 19.7998 12.729 16.8288C13.013 18.1063 12.5152 22.8709 10.6344 24.9645C11.1555 21.4663 10.1386 19.9871 10.1386 19.9871C10.1386 19.9871 9.78954 21.9465 8.43529 23.9259C7.19863 25.7335 6.34175 27.6519 7.95077 31V31Z" fill="white"/>
</g>
<defs>
<filter id="filter0_d" x="30.84" y="7.07397" width="59.7738" height="27.094" filterUnits="userSpaceOnUse" color-interpolation-filters="sRGB">
<feFlood flood-opacity="0" result="BackgroundImageFix"/>
<feColorMatrix in="SourceAlpha" type="matrix" values="0 0 0 0 0 0 0 0 0 0 0 0 0 0 0 0 0 0 127 0"/>
<feOffset dx="1" dy="2"/>
<feGaussianBlur stdDeviation="0.5"/>
<feColorMatrix type="matrix" values="0 0 0 0 0 0 0 0 0 0 0 0 0 0 0 0 0 0 0.5 0"/>
<feBlend mode="normal" in2="BackgroundImageFix" result="effect1_dropShadow"/>
<feBlend mode="normal" in="SourceGraphic" in2="effect1_dropShadow" result="shape"/>
</filter>
<filter id="filter1_d" x="0" y="6" width="27" height="28" filterUnits="userSpaceOnUse" color-interpolation-filters="sRGB">
<feFlood flood-opacity="0" result="BackgroundImageFix"/>
<feColorMatrix in="SourceAlpha" type="matrix" values="0 0 0 0 0 0 0 0 0 0 0 0 0 0 0 0 0 0 127 0"/>
<feOffset dx="1" dy="2"/>
<feGaussianBlur stdDeviation="0.5"/>
<feColorMatrix type="matrix" values="0 0 0 0 0 0 0 0 0 0 0 0 0 0 0 0 0 0 0.5 0"/>
<feBlend mode="normal" in2="BackgroundImageFix" result="effect1_dropShadow"/>
<feBlend mode="normal" in="SourceGraphic" in2="effect1_dropShadow" result="shape"/>
</filter>
</defs>
</svg>
