<svg width="65" height="42" viewBox="0 0 65 42" fill="none" xmlns="http://www.w3.org/2000/svg">
<path d="M34.7739 38.8974C28.3461 34.4059 26.6538 30.1545 27.6213 24.3481C28.3356 20.0606 30.6744 16.5723 30.8987 12.293C31.8978 14.5473 32.3153 16.1728 32.4269 18.5284C35.6045 13.7015 37.7044 7.01924 37.8287 0C37.8287 0 46.1053 6.02943 46.6484 15.1369C47.3609 13.2597 47.7195 10.2783 47.007 8.34596C49.1445 10.2784 61.6554 27.4329 45.3124 38.8974C48.3851 31.4798 46.1051 21.471 40.7702 16.8485C41.1265 18.8361 40.5018 26.2494 38.1416 29.5068C38.7956 24.0639 37.5194 21.7624 37.5194 21.7624C37.5194 21.7624 37.0814 24.8111 35.3819 27.8909C33.83 30.7032 32.7547 33.6881 34.7739 38.8974Z" fill="#C43636"/>
<g filter="url(#filter0_d)">
<path d="M4.888 34.2392C4.98933 33.8712 5.13067 33.5938 5.312 33.4072C5.49867 33.2205 5.75467 33.1272 6.08 33.1272C6.336 33.1272 6.54133 33.2098 6.696 33.3752C6.85067 33.5352 6.928 33.7352 6.928 33.9752C6.928 34.0552 6.91467 34.1485 6.888 34.2552C6.82933 34.4898 6.72533 34.6605 6.576 34.7672C6.42667 34.8685 6.264 34.9192 6.088 34.9192C5.99733 34.9192 5.91467 34.9138 5.84 34.9032C5.77067 34.8872 5.704 34.8685 5.64 34.8472L5.168 36.5832C4.99733 37.2178 4.712 37.7032 4.312 38.0392C3.912 38.3698 3.368 38.5352 2.68 38.5352C2.05067 38.5352 1.56 38.4152 1.208 38.1752C0.861333 37.9352 0.688 37.5618 0.688 37.0552C0.688 36.8098 0.730667 36.5405 0.816 36.2472L1.424 34.0952C1.44533 34.0258 1.456 33.9592 1.456 33.8952C1.456 33.8312 1.44533 33.7805 1.424 33.7432C1.408 33.7005 1.384 33.6525 1.352 33.5992C1.304 33.5298 1.28 33.4738 1.28 33.4312C1.28 33.4098 1.28533 33.3832 1.296 33.3512C1.31733 33.2818 1.36533 33.2338 1.44 33.2072C1.51467 33.1752 1.624 33.1592 1.768 33.1592H3.648C3.87733 33.1592 3.992 33.2285 3.992 33.3672C3.992 33.3992 3.98933 33.4258 3.984 33.4472C3.968 33.4952 3.944 33.5352 3.912 33.5672C3.88533 33.5938 3.84267 33.6258 3.784 33.6632C3.69867 33.7112 3.62933 33.7645 3.576 33.8232C3.52267 33.8818 3.47733 33.9725 3.44 34.0952L2.744 36.5432C2.696 36.7245 2.672 36.8792 2.672 37.0072C2.672 37.3645 2.864 37.5432 3.248 37.5432C3.48267 37.5432 3.67733 37.4685 3.832 37.3192C3.992 37.1645 4.12533 36.9032 4.232 36.5352L4.888 34.2392ZM12.3386 34.7832C12.2532 35.0925 12.0932 35.3352 11.8586 35.5112C11.6239 35.6818 11.3279 35.7885 10.9706 35.8312C11.2266 35.8525 11.4186 35.9272 11.5466 36.0552C11.6746 36.1832 11.7386 36.3512 11.7386 36.5592C11.7386 36.6392 11.7252 36.7378 11.6986 36.8552L11.6106 37.2472C11.5999 37.3005 11.5946 37.3378 11.5946 37.3592C11.5946 37.4285 11.6106 37.4818 11.6426 37.5192C11.6746 37.5512 11.7199 37.5672 11.7786 37.5672C11.8906 37.5672 11.9706 37.5832 12.0186 37.6152C12.0719 37.6472 12.0906 37.7058 12.0746 37.7912C12.0532 37.9138 11.9892 38.0338 11.8826 38.1512C11.7759 38.2685 11.6239 38.3672 11.4266 38.4472C11.2346 38.5218 10.9999 38.5592 10.7226 38.5592C10.3706 38.5592 10.0906 38.4818 9.88256 38.3272C9.67456 38.1672 9.57056 37.9405 9.57056 37.6472C9.57056 37.5352 9.58656 37.4152 9.61856 37.2872L9.74656 36.7752C9.7679 36.7058 9.77856 36.6338 9.77856 36.5592C9.77856 36.4365 9.7359 36.3485 9.65056 36.2952C9.57056 36.2418 9.4399 36.2152 9.25856 36.2152H8.95456L8.58656 37.5432C8.5759 37.5752 8.57056 37.6152 8.57056 37.6632C8.57056 37.7378 8.58923 37.8018 8.62656 37.8552C8.6639 37.9085 8.71456 37.9645 8.77856 38.0232C8.82656 38.0605 8.8639 38.0978 8.89056 38.1352C8.91723 38.1672 8.93056 38.2018 8.93056 38.2392C8.93056 38.3298 8.8879 38.3938 8.80256 38.4312C8.71723 38.4685 8.5919 38.4872 8.42656 38.4872H6.41856C6.2799 38.4872 6.1759 38.4632 6.10656 38.4152C6.03723 38.3618 6.01323 38.2898 6.03456 38.1992C6.04523 38.1512 6.06656 38.1138 6.09856 38.0872C6.12523 38.0552 6.1679 38.0205 6.22656 37.9832C6.31723 37.9298 6.38923 37.8738 6.44256 37.8152C6.4959 37.7565 6.53856 37.6658 6.57056 37.5432L7.54656 34.0952C7.5679 34.0258 7.57856 33.9592 7.57856 33.8952C7.57856 33.8365 7.5679 33.7885 7.54656 33.7512C7.53056 33.7085 7.50656 33.6605 7.47456 33.6072C7.42656 33.5378 7.40256 33.4818 7.40256 33.4392C7.40256 33.4232 7.4079 33.3938 7.41856 33.3512C7.4399 33.2818 7.48523 33.2338 7.55456 33.2072C7.62923 33.1752 7.74123 33.1592 7.89056 33.1592H10.5706C10.9386 33.1592 11.2586 33.2152 11.5306 33.3272C11.8079 33.4392 12.0186 33.5938 12.1626 33.7912C12.3119 33.9832 12.3866 34.2018 12.3866 34.4472C12.3866 34.5592 12.3706 34.6712 12.3386 34.7832ZM10.2906 34.7032C10.3172 34.5805 10.3306 34.4872 10.3306 34.4232C10.3306 34.1405 10.1759 33.9992 9.86656 33.9992H9.53056L9.17856 35.4152H9.51456C9.72256 35.4152 9.88523 35.3645 10.0026 35.2632C10.1252 35.1618 10.2212 34.9752 10.2906 34.7032ZM15.367 33.1112C15.6657 33.1112 15.9403 33.1485 16.191 33.2232C16.447 33.2925 16.7057 33.4045 16.967 33.5592L17.151 33.4072C17.279 33.3058 17.383 33.2365 17.463 33.1992C17.5483 33.1618 17.6443 33.1432 17.751 33.1432C17.879 33.1432 17.9803 33.1725 18.055 33.2312C18.1297 33.2845 18.167 33.3645 18.167 33.4712C18.167 33.5138 18.159 33.5592 18.143 33.6072L17.807 34.7112C17.7697 34.8392 17.7217 34.9298 17.663 34.9832C17.6097 35.0365 17.527 35.0632 17.415 35.0632C17.2977 35.0632 17.1937 35.0285 17.103 34.9592C17.0177 34.8845 16.8817 34.7352 16.695 34.5112C16.5083 34.2978 16.3377 34.1485 16.183 34.0632C16.0337 33.9725 15.879 33.9272 15.719 33.9272C15.6017 33.9272 15.503 33.9672 15.423 34.0472C15.343 34.1218 15.303 34.2152 15.303 34.3272C15.303 34.4552 15.367 34.5752 15.495 34.6872C15.623 34.7938 15.823 34.9298 16.095 35.0952C16.3723 35.2605 16.6017 35.4098 16.783 35.5432C16.9643 35.6765 17.119 35.8418 17.247 36.0392C17.375 36.2365 17.439 36.4632 17.439 36.7192C17.439 36.8845 17.4123 37.0498 17.359 37.2152C17.231 37.6418 16.983 37.9672 16.615 38.1912C16.247 38.4098 15.8177 38.5192 15.327 38.5192C14.959 38.5192 14.6497 38.4765 14.399 38.3912C14.1483 38.3058 13.8923 38.1618 13.631 37.9592L13.343 38.1992C13.2097 38.3112 13.1003 38.3885 13.015 38.4312C12.9297 38.4685 12.8337 38.4872 12.727 38.4872C12.6043 38.4872 12.5057 38.4578 12.431 38.3992C12.3617 38.3405 12.327 38.2605 12.327 38.1592C12.327 38.1058 12.3377 38.0498 12.359 37.9912L12.751 36.7992C12.7937 36.6605 12.8523 36.5618 12.927 36.5032C13.0017 36.4445 13.0977 36.4152 13.215 36.4152C13.3377 36.4152 13.447 36.4578 13.543 36.5432C13.6443 36.6285 13.775 36.7832 13.935 37.0072C14.1057 37.2525 14.263 37.4232 14.407 37.5192C14.5563 37.6152 14.7323 37.6632 14.935 37.6632C15.079 37.6632 15.1883 37.6418 15.263 37.5992C15.343 37.5512 15.399 37.4765 15.431 37.3752C15.4417 37.3485 15.447 37.3085 15.447 37.2552C15.447 37.1272 15.3857 37.0098 15.263 36.9032C15.1403 36.7965 14.951 36.6685 14.695 36.5192C14.423 36.3538 14.2017 36.2072 14.031 36.0792C13.8603 35.9458 13.711 35.7805 13.583 35.5832C13.4603 35.3858 13.399 35.1538 13.399 34.8872C13.399 34.7005 13.4283 34.5165 13.487 34.3352C13.599 33.9672 13.8283 33.6712 14.175 33.4472C14.5217 33.2232 14.919 33.1112 15.367 33.1112ZM17.631 31.2232C17.7857 31.2232 17.9137 31.2632 18.015 31.3432C18.1217 31.4178 18.175 31.5245 18.175 31.6632C18.175 31.8072 18.1243 31.9272 18.023 32.0232C17.9217 32.1138 17.7403 32.2125 17.479 32.3192L16.311 32.8232C16.247 32.8498 16.1937 32.8632 16.151 32.8632C16.087 32.8632 16.0177 32.8312 15.943 32.7672L15.439 32.3112C15.2683 32.1618 15.183 31.9858 15.183 31.7832C15.183 31.6285 15.239 31.4978 15.351 31.3912C15.4683 31.2792 15.6257 31.2232 15.823 31.2232C15.983 31.2232 16.1137 31.2685 16.215 31.3592C16.3217 31.4445 16.3937 31.5725 16.431 31.7432L16.503 32.0792L16.927 31.5752C17.0337 31.4418 17.1403 31.3512 17.247 31.3032C17.359 31.2498 17.487 31.2232 17.631 31.2232ZM23.9664 33.1592C24.185 33.1592 24.2944 33.2285 24.2944 33.3672C24.2944 33.4045 24.2917 33.4312 24.2864 33.4472C24.2704 33.5005 24.2464 33.5432 24.2144 33.5752C24.1824 33.6018 24.137 33.6338 24.0784 33.6712C23.9984 33.7192 23.9317 33.7725 23.8784 33.8312C23.825 33.8898 23.7797 33.9805 23.7424 34.1032L22.7504 37.6552C22.6597 37.9752 22.545 38.1992 22.4064 38.3272C22.273 38.4552 22.0864 38.5192 21.8464 38.5192C21.633 38.5192 21.4544 38.4578 21.3104 38.3352C21.1717 38.2072 21.041 38.0125 20.9184 37.7512L19.7104 35.2072L19.0384 37.5432C19.0224 37.6125 19.0144 37.6738 19.0144 37.7272C19.0144 37.7965 19.025 37.8552 19.0464 37.9032C19.073 37.9458 19.1077 37.9912 19.1504 38.0392C19.209 38.1085 19.2384 38.1672 19.2384 38.2152C19.2384 38.2472 19.2357 38.2712 19.2304 38.2872C19.209 38.3618 19.161 38.4152 19.0864 38.4472C19.0117 38.4738 18.8997 38.4872 18.7504 38.4872H17.8784C17.6597 38.4872 17.5504 38.4178 17.5504 38.2792C17.5504 38.2418 17.553 38.2152 17.5584 38.1992C17.5744 38.1458 17.5984 38.1058 17.6304 38.0792C17.6624 38.0472 17.7077 38.0125 17.7664 37.9752C17.8464 37.9272 17.913 37.8738 17.9664 37.8152C18.0197 37.7565 18.065 37.6658 18.1024 37.5432L19.1184 33.9512L18.9904 33.6872C18.937 33.5805 18.9104 33.4872 18.9104 33.4072C18.9104 33.2418 19.017 33.1592 19.2304 33.1592H20.4144C20.585 33.1592 20.713 33.1992 20.7984 33.2792C20.889 33.3538 20.985 33.4898 21.0864 33.6872L22.2544 36.0312L22.8064 34.1032C22.8224 34.0285 22.8304 33.9672 22.8304 33.9192C22.8304 33.8498 22.817 33.7938 22.7904 33.7512C22.769 33.7032 22.737 33.6552 22.6944 33.6072C22.6357 33.5378 22.6064 33.4792 22.6064 33.4312C22.6064 33.3992 22.609 33.3752 22.6144 33.3592C22.6357 33.2845 22.6837 33.2338 22.7584 33.2072C22.833 33.1752 22.945 33.1592 23.0944 33.1592H23.9664ZM28.4349 37.5432C28.4135 37.6125 28.4029 37.6818 28.4029 37.7512C28.4029 37.8098 28.4109 37.8605 28.4269 37.9032C28.4429 37.9405 28.4589 37.9725 28.4749 37.9992C28.4962 38.0205 28.5095 38.0365 28.5149 38.0472C28.5682 38.1005 28.5949 38.1538 28.5949 38.2072C28.5949 38.2178 28.5895 38.2445 28.5789 38.2872C28.5575 38.3618 28.5095 38.4152 28.4349 38.4472C28.3655 38.4738 28.2562 38.4872 28.1069 38.4872H26.2109C26.0989 38.4872 26.0109 38.4685 25.9469 38.4312C25.8882 38.3938 25.8589 38.3432 25.8589 38.2792C25.8589 38.2472 25.8669 38.2125 25.8829 38.1752C25.8989 38.1325 25.9202 38.1005 25.9469 38.0792C25.9789 38.0525 26.0215 38.0232 26.0749 37.9912C26.1602 37.9432 26.2295 37.8898 26.2829 37.8312C26.3362 37.7725 26.3815 37.6765 26.4189 37.5432L26.6269 36.8552H25.3789L25.1629 37.3112C25.0722 37.5085 25.0269 37.6632 25.0269 37.7752C25.0269 37.8392 25.0375 37.8925 25.0589 37.9352C25.0802 37.9725 25.1122 38.0125 25.1549 38.0552C25.1922 38.0978 25.2162 38.1352 25.2269 38.1672C25.2429 38.1938 25.2455 38.2312 25.2349 38.2792C25.2135 38.3592 25.1682 38.4152 25.0989 38.4472C25.0349 38.4738 24.9309 38.4872 24.7869 38.4872H23.5949C23.4722 38.4872 23.3789 38.4658 23.3149 38.4232C23.2509 38.3752 23.2189 38.3138 23.2189 38.2392C23.2189 38.1538 23.2509 38.0872 23.3149 38.0392C23.3735 37.9858 23.4642 37.9298 23.5869 37.8712C23.7469 37.7912 23.8749 37.7138 23.9709 37.6392C24.0669 37.5592 24.1495 37.4498 24.2189 37.3112L25.6429 34.3592C25.8615 33.9005 26.1175 33.5698 26.4109 33.3672C26.7095 33.1592 27.1015 33.0552 27.5869 33.0552C28.1309 33.0552 28.5522 33.1672 28.8509 33.3912C29.1495 33.6098 29.2989 33.9165 29.2989 34.3112C29.2989 34.4765 29.2722 34.6472 29.2189 34.8232L28.4349 37.5432ZM26.8669 36.0552L27.2909 34.6472C27.3122 34.5832 27.3229 34.5165 27.3229 34.4472C27.3229 34.3458 27.2935 34.2712 27.2349 34.2232C27.1815 34.1698 27.1042 34.1432 27.0029 34.1432C26.8749 34.1432 26.7655 34.1805 26.6749 34.2552C26.5842 34.3298 26.4935 34.4632 26.4029 34.6552L25.7469 36.0552H26.8669ZM33.7264 33.1112C34.025 33.1112 34.2997 33.1485 34.5504 33.2232C34.8064 33.2925 35.065 33.4045 35.3264 33.5592L35.5104 33.4072C35.6384 33.3058 35.7424 33.2365 35.8224 33.1992C35.9077 33.1618 36.0037 33.1432 36.1104 33.1432C36.2384 33.1432 36.3397 33.1725 36.4144 33.2312C36.489 33.2845 36.5264 33.3645 36.5264 33.4712C36.5264 33.5138 36.5184 33.5592 36.5024 33.6072L36.1664 34.7112C36.129 34.8392 36.081 34.9298 36.0224 34.9832C35.969 35.0365 35.8864 35.0632 35.7744 35.0632C35.657 35.0632 35.553 35.0285 35.4624 34.9592C35.377 34.8845 35.241 34.7352 35.0544 34.5112C34.8677 34.2978 34.697 34.1485 34.5424 34.0632C34.393 33.9725 34.2384 33.9272 34.0784 33.9272C33.961 33.9272 33.8624 33.9672 33.7824 34.0472C33.7024 34.1218 33.6624 34.2152 33.6624 34.3272C33.6624 34.4552 33.7264 34.5752 33.8544 34.6872C33.9824 34.7938 34.1824 34.9298 34.4544 35.0952C34.7317 35.2605 34.961 35.4098 35.1424 35.5432C35.3237 35.6765 35.4784 35.8418 35.6064 36.0392C35.7344 36.2365 35.7984 36.4632 35.7984 36.7192C35.7984 36.8845 35.7717 37.0498 35.7184 37.2152C35.5904 37.6418 35.3424 37.9672 34.9744 38.1912C34.6064 38.4098 34.177 38.5192 33.6864 38.5192C33.3184 38.5192 33.009 38.4765 32.7584 38.3912C32.5077 38.3058 32.2517 38.1618 31.9904 37.9592L31.7024 38.1992C31.569 38.3112 31.4597 38.3885 31.3744 38.4312C31.289 38.4685 31.193 38.4872 31.0864 38.4872C30.9637 38.4872 30.865 38.4578 30.7904 38.3992C30.721 38.3405 30.6864 38.2605 30.6864 38.1592C30.6864 38.1058 30.697 38.0498 30.7184 37.9912L31.1104 36.7992C31.153 36.6605 31.2117 36.5618 31.2864 36.5032C31.361 36.4445 31.457 36.4152 31.5744 36.4152C31.697 36.4152 31.8064 36.4578 31.9024 36.5432C32.0037 36.6285 32.1344 36.7832 32.2944 37.0072C32.465 37.2525 32.6224 37.4232 32.7664 37.5192C32.9157 37.6152 33.0917 37.6632 33.2944 37.6632C33.4384 37.6632 33.5477 37.6418 33.6224 37.5992C33.7024 37.5512 33.7584 37.4765 33.7904 37.3752C33.801 37.3485 33.8064 37.3085 33.8064 37.2552C33.8064 37.1272 33.745 37.0098 33.6224 36.9032C33.4997 36.7965 33.3104 36.6685 33.0544 36.5192C32.7824 36.3538 32.561 36.2072 32.3904 36.0792C32.2197 35.9458 32.0704 35.7805 31.9424 35.5832C31.8197 35.3858 31.7584 35.1538 31.7584 34.8872C31.7584 34.7005 31.7877 34.5165 31.8464 34.3352C31.9584 33.9672 32.1877 33.6712 32.5344 33.4472C32.881 33.2232 33.2784 33.1112 33.7264 33.1112ZM41.3959 33.1592C41.5932 33.1592 41.7452 33.2018 41.8519 33.2872C41.9639 33.3725 42.0199 33.4898 42.0199 33.6392C42.0199 33.7138 42.0092 33.7858 41.9879 33.8552L41.7799 34.5992C41.7425 34.7432 41.6865 34.8445 41.6119 34.9032C41.5425 34.9565 41.4412 34.9832 41.3079 34.9832C41.1799 34.9832 41.0785 34.9565 41.0039 34.9032C40.9345 34.8445 40.8812 34.7512 40.8439 34.6232L40.7159 34.1672C40.6892 34.0712 40.6572 34.0072 40.6199 33.9752C40.5825 33.9432 40.5105 33.9272 40.4039 33.9272H39.5639L39.1639 35.3512H39.5159C39.5532 35.3512 39.6039 35.3245 39.6679 35.2712L39.9399 35.0312C40.0199 34.9618 40.0892 34.9112 40.1479 34.8792C40.2065 34.8472 40.2785 34.8312 40.3639 34.8312C40.4599 34.8312 40.5372 34.8578 40.5959 34.9112C40.6599 34.9592 40.6919 35.0232 40.6919 35.1032C40.6919 35.1245 40.6865 35.1565 40.6759 35.1992L40.3479 36.3112C40.3159 36.4285 40.2599 36.5165 40.1799 36.5752C40.1052 36.6285 40.0225 36.6552 39.9319 36.6552C39.7825 36.6552 39.6705 36.5778 39.5959 36.4232L39.4599 36.1432C39.4225 36.0632 39.3639 36.0232 39.2839 36.0232H38.9719L38.4999 37.7192H39.2039C39.3052 37.7192 39.3932 37.7005 39.4679 37.6632C39.5479 37.6205 39.6332 37.5485 39.7239 37.4472L40.2039 36.9192C40.2892 36.8285 40.3692 36.7645 40.4439 36.7272C40.5239 36.6845 40.6199 36.6632 40.7319 36.6632C40.8492 36.6632 40.9452 36.6898 41.0199 36.7432C41.0945 36.7965 41.1319 36.8765 41.1319 36.9832C41.1319 37.0258 41.1239 37.0765 41.1079 37.1352L40.8759 37.9432C40.8172 38.1458 40.7319 38.2872 40.6199 38.3672C40.5079 38.4472 40.3452 38.4872 40.1319 38.4872H36.3159C36.2039 38.4872 36.1185 38.4685 36.0599 38.4312C35.9959 38.3938 35.9639 38.3432 35.9639 38.2792C35.9639 38.2472 35.9719 38.2125 35.9879 38.1752C36.0092 38.1165 36.0439 38.0712 36.0919 38.0392C36.1399 38.0072 36.1692 37.9885 36.1799 37.9832C36.2652 37.9298 36.3345 37.8765 36.3879 37.8232C36.4412 37.7645 36.4865 37.6712 36.5239 37.5432L37.5079 34.0952C37.5292 34.0258 37.5399 33.9618 37.5399 33.9032C37.5399 33.8392 37.5292 33.7858 37.5079 33.7432C37.4919 33.7005 37.4652 33.6552 37.4279 33.6072C37.3799 33.5378 37.3559 33.4818 37.3559 33.4392C37.3559 33.4232 37.3612 33.3938 37.3719 33.3512C37.3932 33.2818 37.4412 33.2338 37.5159 33.2072C37.5905 33.1752 37.6999 33.1592 37.8439 33.1592H41.3959ZM46.0449 36.4232C46.1943 36.4232 46.3063 36.4552 46.3809 36.5192C46.4609 36.5778 46.5009 36.6632 46.5009 36.7752C46.5009 36.8232 46.4929 36.8765 46.4769 36.9352L46.2129 37.8712C46.1436 38.1005 46.0449 38.2605 45.9169 38.3512C45.7943 38.4418 45.6103 38.4872 45.3649 38.4872H41.6049C41.4929 38.4872 41.4076 38.4685 41.3489 38.4312C41.2849 38.3938 41.2529 38.3432 41.2529 38.2792C41.2529 38.2472 41.2609 38.2125 41.2769 38.1752C41.2929 38.1325 41.3196 38.0978 41.3569 38.0712C41.3943 38.0392 41.4343 38.0098 41.4769 37.9832C41.5623 37.9298 41.6316 37.8765 41.6849 37.8232C41.7383 37.7645 41.7836 37.6712 41.8209 37.5432L42.7969 34.0952C42.8183 34.0258 42.8289 33.9592 42.8289 33.8952C42.8289 33.8365 42.8183 33.7885 42.7969 33.7512C42.7809 33.7085 42.7569 33.6605 42.7249 33.6072C42.6769 33.5378 42.6529 33.4818 42.6529 33.4392C42.6529 33.4232 42.6583 33.3938 42.6689 33.3512C42.6903 33.2818 42.7356 33.2338 42.8049 33.2072C42.8796 33.1752 42.9916 33.1592 43.1409 33.1592H45.0209C45.1329 33.1592 45.2183 33.1778 45.2769 33.2152C45.3409 33.2472 45.3729 33.2952 45.3729 33.3592C45.3729 33.3858 45.3649 33.4205 45.3489 33.4632C45.3329 33.5005 45.3089 33.5352 45.2769 33.5672C45.2503 33.5938 45.2236 33.6152 45.1969 33.6312C45.1756 33.6418 45.1596 33.6525 45.1489 33.6632C45.0636 33.7112 44.9943 33.7645 44.9409 33.8232C44.8876 33.8818 44.8423 33.9725 44.8049 34.0952L43.7729 37.7192H44.2689C44.3916 37.7192 44.4956 37.6978 44.5809 37.6552C44.6716 37.6125 44.7649 37.5325 44.8609 37.4152L45.4129 36.7592C45.5143 36.6418 45.6103 36.5565 45.7009 36.5032C45.7969 36.4498 45.9116 36.4232 46.0449 36.4232ZM51.5599 37.5432C51.5385 37.6125 51.5279 37.6818 51.5279 37.7512C51.5279 37.8098 51.5359 37.8605 51.5519 37.9032C51.5679 37.9405 51.5839 37.9725 51.5999 37.9992C51.6212 38.0205 51.6345 38.0365 51.6399 38.0472C51.6932 38.1005 51.7199 38.1538 51.7199 38.2072C51.7199 38.2178 51.7145 38.2445 51.7039 38.2872C51.6825 38.3618 51.6345 38.4152 51.5599 38.4472C51.4905 38.4738 51.3812 38.4872 51.2319 38.4872H49.3359C49.2239 38.4872 49.1359 38.4685 49.0719 38.4312C49.0132 38.3938 48.9839 38.3432 48.9839 38.2792C48.9839 38.2472 48.9919 38.2125 49.0079 38.1752C49.0239 38.1325 49.0452 38.1005 49.0719 38.0792C49.1039 38.0525 49.1465 38.0232 49.1999 37.9912C49.2852 37.9432 49.3545 37.8898 49.4079 37.8312C49.4612 37.7725 49.5065 37.6765 49.5439 37.5432L49.7519 36.8552H48.5039L48.2879 37.3112C48.1972 37.5085 48.1519 37.6632 48.1519 37.7752C48.1519 37.8392 48.1625 37.8925 48.1839 37.9352C48.2052 37.9725 48.2372 38.0125 48.2799 38.0552C48.3172 38.0978 48.3412 38.1352 48.3519 38.1672C48.3679 38.1938 48.3705 38.2312 48.3599 38.2792C48.3385 38.3592 48.2932 38.4152 48.2239 38.4472C48.1599 38.4738 48.0559 38.4872 47.9119 38.4872H46.7199C46.5972 38.4872 46.5039 38.4658 46.4399 38.4232C46.3759 38.3752 46.3439 38.3138 46.3439 38.2392C46.3439 38.1538 46.3759 38.0872 46.4399 38.0392C46.4985 37.9858 46.5892 37.9298 46.7119 37.8712C46.8719 37.7912 46.9999 37.7138 47.0959 37.6392C47.1919 37.5592 47.2745 37.4498 47.3439 37.3112L48.7679 34.3592C48.9865 33.9005 49.2425 33.5698 49.5359 33.3672C49.8345 33.1592 50.2265 33.0552 50.7119 33.0552C51.2559 33.0552 51.6772 33.1672 51.9759 33.3912C52.2745 33.6098 52.4239 33.9165 52.4239 34.3112C52.4239 34.4765 52.3972 34.6472 52.3439 34.8232L51.5599 37.5432ZM49.9919 36.0552L50.4159 34.6472C50.4372 34.5832 50.4479 34.5165 50.4479 34.4472C50.4479 34.3458 50.4185 34.2712 50.3599 34.2232C50.3065 34.1698 50.2292 34.1432 50.1279 34.1432C49.9999 34.1432 49.8905 34.1805 49.7999 34.2552C49.7092 34.3298 49.6185 34.4632 49.5279 34.6552L48.8719 36.0552H49.9919Z" fill="white"/>
</g>
<path d="M14.546 19.676C15.5353 19.676 16.296 19.8907 16.828 20.32C17.3693 20.7493 17.64 21.3187 17.64 22.028C17.64 22.308 17.598 22.602 17.514 22.91C17.2527 23.8433 16.7347 24.534 15.96 24.982C15.1947 25.43 14.224 25.654 13.048 25.654H11.606L11.13 27.348C11.1113 27.404 11.102 27.4787 11.102 27.572C11.102 27.7027 11.13 27.81 11.186 27.894C11.2513 27.978 11.3447 28.076 11.466 28.188C11.5687 28.2813 11.6387 28.3513 11.676 28.398C11.7133 28.4447 11.732 28.5007 11.732 28.566C11.732 28.7247 11.6573 28.8367 11.508 28.902C11.3587 28.9673 11.1393 29 10.85 29H7.336C7.09333 29 6.91133 28.958 6.79 28.874C6.66867 28.7807 6.62667 28.6547 6.664 28.496C6.68267 28.412 6.72 28.3467 6.776 28.3C6.82267 28.244 6.89733 28.1833 7 28.118C7.15867 28.0247 7.28467 27.9267 7.378 27.824C7.47133 27.7213 7.546 27.5627 7.602 27.348L9.31 21.314C9.34733 21.1927 9.366 21.076 9.366 20.964C9.366 20.8613 9.34733 20.7773 9.31 20.712C9.282 20.6373 9.24 20.5533 9.184 20.46C9.1 20.3387 9.058 20.2407 9.058 20.166C9.058 20.138 9.06733 20.0867 9.086 20.012C9.12333 19.8907 9.20267 19.8067 9.324 19.76C9.45467 19.704 9.65067 19.676 9.912 19.676H14.546ZM14.182 22.658C14.2847 22.3127 14.336 22.0093 14.336 21.748C14.336 21.2067 14.084 20.936 13.58 20.936H12.95L11.956 24.394H12.572C12.964 24.394 13.2813 24.2727 13.524 24.03C13.776 23.778 13.9953 23.3207 14.182 22.658ZM21.1245 29.084C20.4991 29.084 19.9298 28.9487 19.4165 28.678C18.9125 28.398 18.5111 27.992 18.2125 27.46C17.9138 26.9187 17.7645 26.2747 17.7645 25.528C17.7645 24.9587 17.8625 24.324 18.0585 23.624C18.4878 22.1307 19.1598 21.076 20.0745 20.46C20.9985 19.844 21.9831 19.536 23.0285 19.536C23.9805 19.536 24.8391 19.8813 25.6045 20.572L26.0245 20.166C26.2578 19.97 26.4585 19.8347 26.6265 19.76C26.7945 19.6853 26.9905 19.648 27.2145 19.648C27.4571 19.648 27.6531 19.7087 27.8025 19.83C27.9518 19.942 28.0265 20.096 28.0265 20.292C28.0265 20.3667 28.0125 20.4553 27.9845 20.558L27.4805 22.322C27.3871 22.6207 27.2751 22.8307 27.1445 22.952C27.0231 23.0733 26.8551 23.134 26.6405 23.134C26.4165 23.134 26.2158 23.078 26.0385 22.966C25.8705 22.854 25.6745 22.6533 25.4505 22.364C25.1518 21.972 24.8858 21.6967 24.6525 21.538C24.4285 21.37 24.1811 21.286 23.9105 21.286C23.4905 21.286 23.0891 21.5007 22.7065 21.93C22.3331 22.35 22.0065 23.0547 21.7265 24.044C21.5491 24.688 21.4605 25.2433 21.4605 25.71C21.4605 26.2047 21.5538 26.5827 21.7405 26.844C21.9365 27.096 22.2071 27.222 22.5525 27.222C22.8511 27.222 23.0798 27.152 23.2385 27.012C23.4065 26.872 23.5371 26.6293 23.6305 26.284L23.7285 25.934C23.7751 25.7473 23.7985 25.6213 23.7985 25.556C23.7985 25.444 23.7705 25.3647 23.7145 25.318C23.6678 25.2713 23.5838 25.22 23.4625 25.164L22.9725 24.982C22.7578 24.898 22.6505 24.744 22.6505 24.52C22.6505 24.4547 22.6551 24.4033 22.6645 24.366C22.7018 24.2447 22.7671 24.156 22.8605 24.1C22.9631 24.044 23.1171 24.016 23.3225 24.016L27.5505 24.03C27.8585 24.03 28.0125 24.128 28.0125 24.324C28.0125 24.3613 28.0031 24.4173 27.9845 24.492C27.9471 24.632 27.8865 24.744 27.8025 24.828C27.7185 24.912 27.5971 24.996 27.4385 25.08L27.0745 25.29C26.9811 25.346 26.9111 25.402 26.8645 25.458C26.8178 25.5047 26.7851 25.5653 26.7665 25.64L26.0245 28.23C25.9311 28.538 25.8238 28.7433 25.7025 28.846C25.5905 28.9487 25.4505 29 25.2825 29H24.6945C24.4705 29 24.2838 28.9533 24.1345 28.86C23.9945 28.7667 23.8778 28.5847 23.7845 28.314L23.6445 27.908C22.9725 28.692 22.1325 29.084 21.1245 29.084ZM34.1455 19.676C35.5455 19.676 36.6001 19.9467 37.3095 20.488C38.0188 21.02 38.3735 21.804 38.3735 22.84C38.3735 23.3533 38.2801 23.946 38.0935 24.618C37.7855 25.7007 37.3701 26.5593 36.8475 27.194C36.3248 27.8287 35.6341 28.2907 34.7755 28.58C33.9261 28.8693 32.8341 29.0093 31.4995 29L27.6915 28.986C27.4955 28.986 27.3461 28.9533 27.2435 28.888C27.1315 28.8227 27.0755 28.734 27.0755 28.622C27.0755 28.566 27.0895 28.5053 27.1175 28.44C27.1455 28.356 27.1875 28.2953 27.2435 28.258C27.2901 28.2207 27.3648 28.1693 27.4675 28.104C27.6168 28.02 27.7335 27.9267 27.8175 27.824C27.9108 27.7213 27.9901 27.558 28.0555 27.334L29.7635 21.314C29.8008 21.1927 29.8195 21.076 29.8195 20.964C29.8195 20.8613 29.8008 20.7773 29.7635 20.712C29.7355 20.6373 29.6935 20.5533 29.6375 20.46C29.5535 20.3387 29.5115 20.2407 29.5115 20.166C29.5115 20.138 29.5208 20.0867 29.5395 20.012C29.5768 19.8907 29.6561 19.8067 29.7775 19.76C29.9081 19.704 30.1041 19.676 30.3655 19.676H34.1455ZM34.5095 24.31C34.7521 23.4327 34.8735 22.742 34.8735 22.238C34.8735 21.7433 34.7708 21.4027 34.5655 21.216C34.3601 21.0293 34.0661 20.936 33.6835 20.936H33.3755L31.4855 27.74H31.8215C32.2508 27.74 32.6101 27.6513 32.8995 27.474C33.1981 27.2873 33.4735 26.9513 33.7255 26.466C33.9775 25.9713 34.2388 25.2527 34.5095 24.31Z" fill="white"/>
<defs>
<filter id="filter0_d" x="0.687988" y="31.2232" width="53.7359" height="10.336" filterUnits="userSpaceOnUse" color-interpolation-filters="sRGB">
<feFlood flood-opacity="0" result="BackgroundImageFix"/>
<feColorMatrix in="SourceAlpha" type="matrix" values="0 0 0 0 0 0 0 0 0 0 0 0 0 0 0 0 0 0 127 0"/>
<feOffset dx="1" dy="2"/>
<feGaussianBlur stdDeviation="0.5"/>
<feColorMatrix type="matrix" values="0 0 0 0 0 0 0 0 0 0 0 0 0 0 0 0 0 0 0.5 0"/>
<feBlend mode="normal" in2="BackgroundImageFix" result="effect1_dropShadow"/>
<feBlend mode="normal" in="SourceGraphic" in2="effect1_dropShadow" result="shape"/>
</filter>
</defs>
</svg>
