<svg width="52" height="49" viewBox="0 0 52 49" fill="none" xmlns="http://www.w3.org/2000/svg">
<ellipse cx="25.0371" cy="24.5" rx="25.0371" ry="24.5" fill="black" fill-opacity="0.7"/>
<path d="M27.1923 22.9871L27.1613 22.9829L27.1613 22.9829L27.1613 22.9832L27.1611 22.9842L27.1606 22.9883L27.1581 23.0049C27.1559 23.0197 27.1526 23.0415 27.1479 23.0701C27.1386 23.1273 27.1242 23.2113 27.1036 23.3183C27.0625 23.5323 26.9969 23.8383 26.8989 24.2062C26.7029 24.942 26.3776 25.9244 25.8607 26.9114C25.3866 27.8166 24.9839 28.752 24.8549 29.8817C24.7284 30.9895 24.8653 32.2817 25.4526 33.9131C23.5428 32.4933 22.3344 31.111 21.6725 29.6286C21.0012 28.1252 20.8905 26.5156 21.185 24.6538C21.3778 23.4342 21.7652 22.3156 22.1495 21.2058C22.1984 21.0648 22.2471 20.924 22.2954 20.7831C22.7097 19.5752 23.0902 18.3648 23.1769 17.0383C23.7475 18.4198 23.9885 19.4439 24.0545 20.9099L24.059 21.0102L24.1122 20.9251C26.0449 17.8319 27.3243 13.5571 27.4111 9.06361C27.4134 9.06544 27.4157 9.06734 27.4182 9.0693C27.4551 9.09896 27.5093 9.14328 27.5784 9.2018C27.7167 9.31885 27.9148 9.49269 28.1535 9.71962C28.6311 10.1735 29.2715 10.8396 29.9221 11.6883C31.2236 13.386 32.5649 15.8123 32.7301 18.7305L32.7907 18.7393C33.0091 18.1331 33.173 17.3495 33.2278 16.5619C33.2791 15.8265 33.2355 15.0851 33.0508 14.48C33.4059 14.856 34.0652 15.7274 34.7434 16.9353C35.4854 18.2567 36.2487 19.9787 36.6603 21.8912C37.0718 23.8036 37.1315 25.9057 36.4674 27.9885C35.8112 30.0466 34.4477 32.088 32.0146 33.9102C32.9185 31.5422 33.0287 28.7785 32.5148 26.2345C31.9937 23.6545 30.8299 21.2969 29.1965 19.8057L29.1293 19.7444L29.1446 19.834C29.2524 20.4677 29.2121 21.9742 28.9642 23.5859C28.7245 25.1437 28.292 26.7919 27.6171 27.8401C27.798 26.1553 27.7042 24.9489 27.5624 24.1584C27.4898 23.7533 27.4045 23.4575 27.3372 23.2627C27.3036 23.1652 27.2745 23.093 27.2536 23.045C27.2432 23.021 27.2349 23.0031 27.2291 22.991L27.2224 22.9774L27.2206 22.9739L27.2201 22.9729L27.22 22.9726L27.22 22.9726L27.1923 22.9871ZM27.1923 22.9871L27.1613 22.9828L27.1745 22.8862L27.2199 22.9725L27.1923 22.9871Z" fill="#C43636" stroke="#F13838" stroke-width="0.0625"/>
<g filter="url(#filter0_d)">
<path d="M8.26349 18.496H9.89549C10.2688 18.496 10.5488 18.5707 10.7355 18.72C10.9222 18.864 11.0422 19.056 11.0955 19.296C11.1542 19.5307 11.1835 19.84 11.1835 20.224C11.1835 20.5973 11.1542 20.904 11.0955 21.144C11.0422 21.3787 10.9222 21.5707 10.7355 21.72C10.5488 21.8693 10.2688 21.944 9.89549 21.944H8.86349V24H8.26349V18.496ZM9.73549 21.424C9.99149 21.424 10.1782 21.3813 10.2955 21.296C10.4182 21.2107 10.4955 21.088 10.5275 20.928C10.5648 20.7627 10.5835 20.528 10.5835 20.224C10.5835 19.9147 10.5648 19.68 10.5275 19.52C10.4955 19.3547 10.4208 19.232 10.3035 19.152C10.1862 19.0667 9.99949 19.024 9.74349 19.024H8.86349V21.424H9.73549ZM13.4382 21.584V21.072H14.8382V23.912C14.6516 23.9547 14.4356 23.9893 14.1902 24.016C13.9502 24.048 13.7369 24.064 13.5502 24.064C13.0649 24.064 12.7049 23.9947 12.4702 23.856C12.2356 23.712 12.0729 23.4453 11.9822 23.056C11.8916 22.6667 11.8462 22.064 11.8462 21.248C11.8462 20.4427 11.8916 19.8453 11.9822 19.456C12.0729 19.0667 12.2356 18.8 12.4702 18.656C12.7049 18.5067 13.0676 18.432 13.5582 18.432C13.7716 18.432 13.9982 18.448 14.2382 18.48C14.4836 18.512 14.6782 18.5467 14.8222 18.584V19.08C14.6782 19.048 14.5022 19.0213 14.2942 19C14.0916 18.9733 13.9289 18.96 13.8062 18.96C13.3742 18.96 13.0729 19 12.9022 19.08C12.7316 19.16 12.6142 19.352 12.5502 19.656C12.4862 19.96 12.4542 20.4907 12.4542 21.248C12.4542 21.9413 12.4782 22.4427 12.5262 22.752C12.5742 23.056 12.6729 23.264 12.8222 23.376C12.9716 23.488 13.2169 23.544 13.5582 23.544C13.8356 23.544 14.0676 23.5227 14.2542 23.48V21.584H13.4382ZM15.8494 18.496H17.1614C17.6948 18.496 18.0734 18.5653 18.2974 18.704C18.5268 18.8427 18.6734 19.0933 18.7374 19.456C18.8068 19.8133 18.8414 20.4107 18.8414 21.248C18.8414 22.0853 18.8068 22.6853 18.7374 23.048C18.6734 23.4053 18.5268 23.6533 18.2974 23.792C18.0734 23.9307 17.6948 24 17.1614 24H15.8494V18.496ZM17.1374 23.472C17.5054 23.472 17.7561 23.4347 17.8894 23.36C18.0281 23.28 18.1214 23.096 18.1694 22.808C18.2174 22.52 18.2414 22 18.2414 21.248C18.2414 20.5013 18.2174 19.984 18.1694 19.696C18.1214 19.4027 18.0281 19.2187 17.8894 19.144C17.7508 19.064 17.5001 19.024 17.1374 19.024H16.4414V23.472H17.1374ZM11.2955 29.496V32.608C11.2955 33.3227 11.2635 33.8427 11.1995 34.168C11.1355 34.4933 10.9968 34.7253 10.7835 34.864C10.5755 34.9973 10.2342 35.064 9.75949 35.064C9.28482 35.064 8.94082 34.9973 8.72749 34.864C8.51416 34.7253 8.37549 34.4933 8.31149 34.168C8.24749 33.8373 8.21549 33.3173 8.21549 32.608V29.496H8.81549V32.88C8.81549 33.3867 8.83416 33.7467 8.87149 33.96C8.90882 34.1733 8.98882 34.3227 9.11149 34.408C9.23949 34.4933 9.45549 34.536 9.75949 34.536C10.0635 34.536 10.2768 34.4933 10.3995 34.408C10.5275 34.3227 10.6075 34.1733 10.6395 33.96C10.6768 33.7467 10.6955 33.3867 10.6955 32.88V29.496H11.2955ZM14.8049 35L14.1169 32.784H14.0049H12.9729V35H12.3729V29.496H14.0529C14.4315 29.496 14.7142 29.5653 14.9009 29.704C15.0875 29.8427 15.2075 30.0267 15.2609 30.256C15.3195 30.4853 15.3489 30.7813 15.3489 31.144C15.3489 31.544 15.3062 31.8747 15.2209 32.136C15.1409 32.392 14.9649 32.5733 14.6929 32.68L15.4369 35H14.8049ZM13.9009 32.264C14.1515 32.264 14.3382 32.224 14.4609 32.144C14.5835 32.064 14.6609 31.9493 14.6929 31.8C14.7302 31.6453 14.7489 31.4267 14.7489 31.144C14.7489 30.856 14.7302 30.6373 14.6929 30.488C14.6609 30.3387 14.5862 30.224 14.4689 30.144C14.3515 30.064 14.1649 30.024 13.9089 30.024H12.9729V32.264H13.9009ZM17.5582 35.064C17.0622 35.064 16.6062 35.0293 16.1902 34.96V34.44C16.3768 34.4667 16.5822 34.4907 16.8062 34.512C17.0302 34.528 17.2195 34.536 17.3742 34.536C17.5875 34.536 17.7555 34.5227 17.8782 34.496C18.0062 34.464 18.1102 34.4107 18.1902 34.336C18.2648 34.2667 18.3128 34.1653 18.3342 34.032C18.3608 33.8987 18.3742 33.72 18.3742 33.496C18.3742 33.2027 18.3635 32.9973 18.3422 32.88C18.3208 32.7627 18.2702 32.68 18.1902 32.632C18.1155 32.5787 17.9795 32.536 17.7822 32.504L16.8542 32.36C16.6302 32.3227 16.4622 32.248 16.3502 32.136C16.2382 32.0187 16.1635 31.8693 16.1262 31.688C16.0942 31.5067 16.0782 31.264 16.0782 30.96C16.0782 30.4053 16.1955 30.0133 16.4302 29.784C16.6648 29.5493 17.0408 29.432 17.5582 29.432C18.0542 29.432 18.4595 29.4747 18.7742 29.56V30.056C18.4168 29.992 18.0568 29.96 17.6942 29.96C17.4648 29.96 17.2835 29.9813 17.1502 30.024C17.0168 30.0613 16.9155 30.12 16.8462 30.2C16.7768 30.28 16.7315 30.3787 16.7102 30.496C16.6888 30.6133 16.6782 30.7627 16.6782 30.944C16.6782 31.1893 16.6888 31.368 16.7102 31.48C16.7315 31.5867 16.7742 31.6613 16.8382 31.704C16.9022 31.7467 17.0088 31.7813 17.1582 31.808L18.0542 31.952C18.2782 31.9893 18.4542 32.0453 18.5822 32.12C18.7102 32.1947 18.8088 32.3227 18.8782 32.504C18.9422 32.6587 18.9742 32.9653 18.9742 33.424C18.9742 33.8347 18.9288 34.1573 18.8382 34.392C18.7528 34.6267 18.6062 34.7973 18.3982 34.904C18.1955 35.0107 17.9155 35.064 17.5582 35.064ZM17.2542 29.008L16.6382 27.944V27.896H17.0382L17.5662 28.672L18.0862 27.896H18.4862V27.944L17.8702 29.008H17.2542ZM22.3691 35L20.4731 30.768H20.4411V35H19.8651V29.496H20.4971L22.3611 33.656H22.3931V29.496H22.9691V35H22.3691ZM26.7236 35L26.3396 33.472H24.6516L24.2756 35H23.6756L25.1156 29.496H25.8996L27.3396 35H26.7236ZM25.5156 30.224H25.4756L24.7956 32.944H26.1956L25.5156 30.224ZM30.8238 35.064C30.3278 35.064 29.8718 35.0293 29.4558 34.96V34.44C29.6425 34.4667 29.8478 34.4907 30.0718 34.512C30.2958 34.528 30.4851 34.536 30.6398 34.536C30.8531 34.536 31.0211 34.5227 31.1438 34.496C31.2718 34.464 31.3758 34.4107 31.4558 34.336C31.5305 34.2667 31.5785 34.1653 31.5998 34.032C31.6265 33.8987 31.6398 33.72 31.6398 33.496C31.6398 33.2027 31.6291 32.9973 31.6078 32.88C31.5865 32.7627 31.5358 32.68 31.4558 32.632C31.3811 32.5787 31.2451 32.536 31.0478 32.504L30.1198 32.36C29.8958 32.3227 29.7278 32.248 29.6158 32.136C29.5038 32.0187 29.4291 31.8693 29.3918 31.688C29.3598 31.5067 29.3438 31.264 29.3438 30.96C29.3438 30.4053 29.4611 30.0133 29.6958 29.784C29.9305 29.5493 30.3065 29.432 30.8238 29.432C31.3198 29.432 31.7251 29.4747 32.0398 29.56V30.056C31.6825 29.992 31.3225 29.96 30.9598 29.96C30.7305 29.96 30.5491 29.9813 30.4158 30.024C30.2825 30.0613 30.1811 30.12 30.1118 30.2C30.0425 30.28 29.9971 30.3787 29.9758 30.496C29.9545 30.6133 29.9438 30.7627 29.9438 30.944C29.9438 31.1893 29.9545 31.368 29.9758 31.48C29.9971 31.5867 30.0398 31.6613 30.1038 31.704C30.1678 31.7467 30.2745 31.7813 30.4238 31.808L31.3198 31.952C31.5438 31.9893 31.7198 32.0453 31.8478 32.12C31.9758 32.1947 32.0745 32.3227 32.1438 32.504C32.2078 32.6587 32.2398 32.9653 32.2398 33.424C32.2398 33.8347 32.1945 34.1573 32.1038 34.392C32.0185 34.6267 31.8718 34.7973 31.6638 34.904C31.4611 35.0107 31.1811 35.064 30.8238 35.064ZM33.1307 35V29.496H35.7307V30.024H33.7307V31.952H35.4667V32.48H33.7307V34.472H35.7307V35H33.1307ZM36.5916 35V29.496H37.1916V34.456H38.9676V35H36.5916ZM42.2549 35L41.8709 33.472H40.1829L39.8069 35H39.2069L40.6469 29.496H41.4309L42.8709 35H42.2549ZM41.0469 30.224H41.0069L40.3269 32.944H41.7269L41.0469 30.224Z" fill="white"/>
</g>
<defs>
<filter id="filter0_d" x="8.21545" y="18.432" width="36.6554" height="19.632" filterUnits="userSpaceOnUse" color-interpolation-filters="sRGB">
<feFlood flood-opacity="0" result="BackgroundImageFix"/>
<feColorMatrix in="SourceAlpha" type="matrix" values="0 0 0 0 0 0 0 0 0 0 0 0 0 0 0 0 0 0 127 0"/>
<feOffset dx="1" dy="2"/>
<feGaussianBlur stdDeviation="0.5"/>
<feColorMatrix type="matrix" values="0 0 0 0 0 0 0 0 0 0 0 0 0 0 0 0 0 0 0.5 0"/>
<feBlend mode="normal" in2="BackgroundImageFix" result="effect1_dropShadow"/>
<feBlend mode="normal" in="SourceGraphic" in2="effect1_dropShadow" result="shape"/>
</filter>
</defs>
</svg>
