<svg width="104" height="101" viewBox="0 0 104 101" fill="none" xmlns="http://www.w3.org/2000/svg">
<path d="M103 50.5C103 77.8107 80.1943 100 52 100C23.8057 100 1 77.8107 1 50.5C1 23.1893 23.8057 1 52 1C80.1943 1 103 23.1893 103 50.5Z" fill="black" stroke="#F13838" stroke-width="2"/>
<path d="M51.7067 46.9741L51.7332 46.9576L51.7333 46.9578L51.7336 46.9582L51.7347 46.96L51.7388 46.9668C51.7424 46.9728 51.7476 46.9817 51.7544 46.9936C51.7679 47.0173 51.7875 47.0529 51.8121 47.1006C51.8612 47.1959 51.9301 47.3397 52.0097 47.5338C52.1689 47.9222 52.371 48.5125 52.5433 49.3214C52.8843 50.9222 53.1086 53.379 52.654 56.8224C54.3182 54.7279 55.3767 51.3551 55.9575 48.1756C56.2519 46.5644 56.4233 45.0042 56.4889 43.6875C56.5546 42.3701 56.5142 41.2986 56.3859 40.6638L56.3694 40.5819L56.4356 40.6328C60.307 43.6089 63.0685 48.3176 64.3053 53.4741C65.534 58.5965 65.2589 64.1638 63.07 68.9179C68.929 65.2505 72.2054 61.1348 73.7766 56.9849C75.3558 52.8138 75.2137 48.605 74.2354 44.777C73.2571 40.9487 71.4428 37.5022 69.6793 34.8573C67.9842 32.315 66.3375 30.5156 65.5276 29.8305C66.0078 31.0604 66.1244 32.5967 65.9982 34.122C65.868 35.6952 65.4793 37.2599 64.9618 38.4698L64.9018 38.4596C64.5091 32.6161 61.3197 27.7582 58.2258 24.3596C56.679 22.6606 55.1568 21.3271 54.0213 20.4183C53.4535 19.964 52.9825 19.6158 52.6535 19.3813C52.489 19.2641 52.36 19.1753 52.2722 19.1158C52.236 19.0912 52.2067 19.0717 52.1849 19.0572C51.9931 28.0655 48.9519 36.6385 44.3537 42.8357L44.302 42.9053L44.2974 42.8187C44.1378 39.8319 43.5468 37.7605 42.1383 34.92C41.9567 37.6301 41.0383 40.0952 40.0354 42.5577C39.9207 42.8394 39.8049 43.121 39.6889 43.403C38.7762 45.6224 37.8552 47.862 37.3967 50.3036C36.6968 54.0305 36.9594 57.2551 38.5571 60.2681C40.1455 63.2637 43.0554 66.0538 47.6603 68.9206C46.2295 65.6121 45.8952 63.0006 46.1982 60.7663C46.5039 58.5117 47.4582 56.6442 48.5833 54.8353C49.8127 52.8587 50.5859 50.8919 51.0518 49.419C51.2847 48.6826 51.4408 48.0699 51.5386 47.6414C51.5875 47.4271 51.6218 47.2589 51.6439 47.1443C51.655 47.087 51.663 47.0432 51.6682 47.0137L51.674 46.9803L51.6754 46.9719L51.6757 46.9698L51.6758 46.9693L51.6758 46.9692L51.7067 46.9741ZM51.7067 46.9741L51.7332 46.9576L51.6891 46.8871L51.6758 46.9691L51.7067 46.9741Z" fill="#C43636" stroke="#F13838" stroke-width="0.0625"/>
<g filter="url(#filter0_d)">
<path d="M15.26 39.616H18.932C19.772 39.616 20.402 39.784 20.822 40.12C21.242 40.444 21.512 40.876 21.632 41.416C21.764 41.944 21.83 42.64 21.83 43.504C21.83 44.344 21.764 45.034 21.632 45.574C21.512 46.102 21.242 46.534 20.822 46.87C20.402 47.206 19.772 47.374 18.932 47.374H16.61V52H15.26V39.616ZM18.572 46.204C19.148 46.204 19.568 46.108 19.832 45.916C20.108 45.724 20.282 45.448 20.354 45.088C20.438 44.716 20.48 44.188 20.48 43.504C20.48 42.808 20.438 42.28 20.354 41.92C20.282 41.548 20.114 41.272 19.85 41.092C19.586 40.9 19.166 40.804 18.59 40.804H16.61V46.204H18.572ZM26.9032 46.564V45.412H30.0532V51.802C29.6332 51.898 29.1472 51.976 28.5952 52.036C28.0552 52.108 27.5752 52.144 27.1552 52.144C26.0632 52.144 25.2532 51.988 24.7252 51.676C24.1972 51.352 23.8312 50.752 23.6272 49.876C23.4232 49 23.3212 47.644 23.3212 45.808C23.3212 43.996 23.4232 42.652 23.6272 41.776C23.8312 40.9 24.1972 40.3 24.7252 39.976C25.2532 39.64 26.0692 39.472 27.1732 39.472C27.6532 39.472 28.1632 39.508 28.7032 39.58C29.2552 39.652 29.6932 39.73 30.0172 39.814V40.93C29.6932 40.858 29.2972 40.798 28.8292 40.75C28.3732 40.69 28.0072 40.66 27.7312 40.66C26.7592 40.66 26.0812 40.75 25.6972 40.93C25.3132 41.11 25.0492 41.542 24.9052 42.226C24.7612 42.91 24.6892 44.104 24.6892 45.808C24.6892 47.368 24.7432 48.496 24.8512 49.192C24.9592 49.876 25.1812 50.344 25.5172 50.596C25.8532 50.848 26.4052 50.974 27.1732 50.974C27.7972 50.974 28.3192 50.926 28.7392 50.83V46.564H26.9032ZM32.3284 39.616H35.2804C36.4804 39.616 37.3324 39.772 37.8364 40.084C38.3524 40.396 38.6824 40.96 38.8264 41.776C38.9824 42.58 39.0604 43.924 39.0604 45.808C39.0604 47.692 38.9824 49.042 38.8264 49.858C38.6824 50.662 38.3524 51.22 37.8364 51.532C37.3324 51.844 36.4804 52 35.2804 52H32.3284V39.616ZM35.2264 50.812C36.0544 50.812 36.6184 50.728 36.9184 50.56C37.2304 50.38 37.4404 49.966 37.5484 49.318C37.6564 48.67 37.7104 47.5 37.7104 45.808C37.7104 44.128 37.6564 42.964 37.5484 42.316C37.4404 41.656 37.2304 41.242 36.9184 41.074C36.6064 40.894 36.0424 40.804 35.2264 40.804H33.6604V50.812H35.2264ZM22.082 55.616V62.618C22.082 64.226 22.01 65.396 21.866 66.128C21.722 66.86 21.41 67.382 20.93 67.694C20.462 67.994 19.694 68.144 18.626 68.144C17.558 68.144 16.784 67.994 16.304 67.694C15.824 67.382 15.512 66.86 15.368 66.128C15.224 65.384 15.152 64.214 15.152 62.618V55.616H16.502V63.23C16.502 64.37 16.544 65.18 16.628 65.66C16.712 66.14 16.892 66.476 17.168 66.668C17.456 66.86 17.942 66.956 18.626 66.956C19.31 66.956 19.79 66.86 20.066 66.668C20.354 66.476 20.534 66.14 20.606 65.66C20.69 65.18 20.732 64.37 20.732 63.23V55.616H22.082ZM29.9781 68L28.4301 63.014H28.1781H25.8561V68H24.5061V55.616H28.2861C29.1381 55.616 29.7741 55.772 30.1941 56.084C30.6141 56.396 30.8841 56.81 31.0041 57.326C31.1361 57.842 31.2021 58.508 31.2021 59.324C31.2021 60.224 31.1061 60.968 30.9141 61.556C30.7341 62.132 30.3381 62.54 29.7261 62.78L31.4001 68H29.9781ZM27.9441 61.844C28.5081 61.844 28.9281 61.754 29.2041 61.574C29.4801 61.394 29.6541 61.136 29.7261 60.8C29.8101 60.452 29.8521 59.96 29.8521 59.324C29.8521 58.676 29.8101 58.184 29.7261 57.848C29.6541 57.512 29.4861 57.254 29.2221 57.074C28.9581 56.894 28.5381 56.804 27.9621 56.804H25.8561V61.844H27.9441ZM36.173 68.144C35.057 68.144 34.031 68.066 33.095 67.91V66.74C33.515 66.8 33.977 66.854 34.481 66.902C34.985 66.938 35.411 66.956 35.759 66.956C36.239 66.956 36.617 66.926 36.893 66.866C37.181 66.794 37.415 66.674 37.595 66.506C37.763 66.35 37.871 66.122 37.919 65.822C37.979 65.522 38.009 65.12 38.009 64.616C38.009 63.956 37.985 63.494 37.937 63.23C37.889 62.966 37.775 62.78 37.595 62.672C37.427 62.552 37.121 62.456 36.677 62.384L34.589 62.06C34.085 61.976 33.707 61.808 33.455 61.556C33.203 61.292 33.035 60.956 32.951 60.548C32.879 60.14 32.843 59.594 32.843 58.91C32.843 57.662 33.107 56.78 33.635 56.264C34.163 55.736 35.009 55.472 36.173 55.472C37.289 55.472 38.201 55.568 38.909 55.76V56.876C38.105 56.732 37.295 56.66 36.479 56.66C35.963 56.66 35.555 56.708 35.255 56.804C34.955 56.888 34.727 57.02 34.571 57.2C34.415 57.38 34.313 57.602 34.265 57.866C34.217 58.13 34.193 58.466 34.193 58.874C34.193 59.426 34.217 59.828 34.265 60.08C34.313 60.32 34.409 60.488 34.553 60.584C34.697 60.68 34.937 60.758 35.273 60.818L37.289 61.142C37.793 61.226 38.189 61.352 38.477 61.52C38.765 61.688 38.987 61.976 39.143 62.384C39.287 62.732 39.359 63.422 39.359 64.454C39.359 65.378 39.257 66.104 39.053 66.632C38.861 67.16 38.531 67.544 38.063 67.784C37.607 68.024 36.977 68.144 36.173 68.144ZM35.489 54.518L34.103 52.124V52.016H35.003L36.191 53.762L37.361 52.016H38.261V52.124L36.875 54.518H35.489ZM46.9975 68L42.7315 58.478H42.6595V68H41.3635V55.616H42.7855L46.9795 64.976H47.0515V55.616H48.3475V68H46.9975ZM56.7953 68L55.9313 64.562H52.1333L51.2873 68H49.9373L53.1773 55.616H54.9413L58.1813 68H56.7953ZM54.0773 57.254H53.9873L52.4573 63.374H55.6073L54.0773 57.254ZM66.0207 68.144C64.9047 68.144 63.8787 68.066 62.9427 67.91V66.74C63.3627 66.8 63.8247 66.854 64.3287 66.902C64.8327 66.938 65.2587 66.956 65.6067 66.956C66.0867 66.956 66.4647 66.926 66.7407 66.866C67.0287 66.794 67.2627 66.674 67.4427 66.506C67.6107 66.35 67.7187 66.122 67.7667 65.822C67.8267 65.522 67.8567 65.12 67.8567 64.616C67.8567 63.956 67.8327 63.494 67.7847 63.23C67.7367 62.966 67.6227 62.78 67.4427 62.672C67.2747 62.552 66.9687 62.456 66.5247 62.384L64.4367 62.06C63.9327 61.976 63.5547 61.808 63.3027 61.556C63.0507 61.292 62.8827 60.956 62.7987 60.548C62.7267 60.14 62.6907 59.594 62.6907 58.91C62.6907 57.662 62.9547 56.78 63.4827 56.264C64.0107 55.736 64.8567 55.472 66.0207 55.472C67.1367 55.472 68.0487 55.568 68.7567 55.76V56.876C67.9527 56.732 67.1427 56.66 66.3267 56.66C65.8107 56.66 65.4027 56.708 65.1027 56.804C64.8027 56.888 64.5747 57.02 64.4187 57.2C64.2627 57.38 64.1607 57.602 64.1127 57.866C64.0647 58.13 64.0407 58.466 64.0407 58.874C64.0407 59.426 64.0647 59.828 64.1127 60.08C64.1607 60.32 64.2567 60.488 64.4007 60.584C64.5447 60.68 64.7847 60.758 65.1207 60.818L67.1367 61.142C67.6407 61.226 68.0367 61.352 68.3247 61.52C68.6127 61.688 68.8347 61.976 68.9907 62.384C69.1347 62.732 69.2067 63.422 69.2067 64.454C69.2067 65.378 69.1047 66.104 68.9007 66.632C68.7087 67.16 68.3787 67.544 67.9107 67.784C67.4547 68.024 66.8247 68.144 66.0207 68.144ZM71.2112 68V55.616H77.0612V56.804H72.5612V61.142H76.4672V62.33H72.5612V66.812H77.0612V68H71.2112ZM78.9983 68V55.616H80.3483V66.776H84.3443V68H78.9983ZM91.7406 68L90.8766 64.562H87.0786L86.2326 68H84.8826L88.1226 55.616H89.8866L93.1266 68H91.7406ZM89.0226 57.254H88.9326L87.4026 63.374H90.5526L89.0226 57.254Z" fill="white"/>
</g>
<defs>
<filter id="filter0_d" x="15.1521" y="39.472" width="79.9746" height="31.672" filterUnits="userSpaceOnUse" color-interpolation-filters="sRGB">
<feFlood flood-opacity="0" result="BackgroundImageFix"/>
<feColorMatrix in="SourceAlpha" type="matrix" values="0 0 0 0 0 0 0 0 0 0 0 0 0 0 0 0 0 0 127 0"/>
<feOffset dx="1" dy="2"/>
<feGaussianBlur stdDeviation="0.5"/>
<feColorMatrix type="matrix" values="0 0 0 0 0 0 0 0 0 0 0 0 0 0 0 0 0 0 0.5 0"/>
<feBlend mode="normal" in2="BackgroundImageFix" result="effect1_dropShadow"/>
<feBlend mode="normal" in="SourceGraphic" in2="effect1_dropShadow" result="shape"/>
</filter>
</defs>
</svg>
