<svg width="81" height="54" viewBox="0 0 81 54" fill="none" xmlns="http://www.w3.org/2000/svg">
<path d="M45.7067 27.9741L45.7332 27.9576L45.7333 27.9578L45.7336 27.9582L45.7347 27.96L45.7388 27.9668C45.7424 27.9728 45.7476 27.9817 45.7544 27.9936C45.7679 28.0173 45.7875 28.0529 45.8121 28.1006C45.8612 28.1959 45.9301 28.3397 46.0097 28.5338C46.1689 28.9222 46.371 29.5125 46.5433 30.3214C46.8843 31.9222 47.1086 34.379 46.654 37.8224C48.3182 35.7279 49.3767 32.3551 49.9575 29.1756C50.2519 27.5644 50.4233 26.0042 50.4889 24.6875C50.5546 23.3701 50.5142 22.2986 50.3859 21.6638L50.3694 21.5819L50.4356 21.6328C54.307 24.6089 57.0685 29.3176 58.3053 34.4741C59.534 39.5965 59.2589 45.1638 57.07 49.9179C62.929 46.2505 66.2054 42.1348 67.7766 37.9849C69.3558 33.8138 69.2137 29.605 68.2354 25.777C67.2571 21.9487 65.4428 18.5022 63.6793 15.8573C61.9842 13.315 60.3375 11.5156 59.5276 10.8305C60.0078 12.0604 60.1244 13.5967 59.9982 15.122C59.868 16.6952 59.4793 18.2599 58.9618 19.4698L58.9018 19.4596C58.5091 13.6161 55.3197 8.75819 52.2258 5.35963C50.679 3.66062 49.1568 2.32708 48.0213 1.41832C47.4535 0.963962 46.9825 0.61583 46.6535 0.381339C46.489 0.264095 46.36 0.175263 46.2722 0.115772C46.236 0.0912355 46.2067 0.0716901 46.1849 0.0572005C45.9931 9.06552 42.9519 17.6385 38.3537 23.8357L38.302 23.9053L38.2974 23.8187C38.1378 20.8319 37.5468 18.7605 36.1383 15.92C35.9567 18.6301 35.0383 21.0952 34.0354 23.5577C33.9207 23.8394 33.8049 24.121 33.6889 24.403C32.7762 26.6224 31.8552 28.862 31.3967 31.3036C30.6968 35.0305 30.9594 38.2551 32.5571 41.2681C34.1455 44.2637 37.0554 47.0538 41.6603 49.9206C40.2295 46.6121 39.8952 44.0006 40.1982 41.7663C40.5039 39.5117 41.4582 37.6442 42.5833 35.8353C43.8127 33.8587 44.5859 31.8919 45.0518 30.419C45.2847 29.6826 45.4408 29.0699 45.5386 28.6414C45.5875 28.4271 45.6218 28.2589 45.6439 28.1443C45.655 28.087 45.663 28.0432 45.6682 28.0137L45.674 27.9803L45.6754 27.9719L45.6757 27.9698L45.6758 27.9693L45.6758 27.9692L45.7067 27.9741ZM45.7067 27.9741L45.7332 27.9576L45.6891 27.8871L45.6758 27.9691L45.7067 27.9741Z" fill="#C43636" stroke="#F13838" stroke-width="0.0625"/>
<g filter="url(#filter0_d)">
<path d="M0.26 21.616H3.932C4.772 21.616 5.402 21.784 5.822 22.12C6.242 22.444 6.512 22.876 6.632 23.416C6.764 23.944 6.83 24.64 6.83 25.504C6.83 26.344 6.764 27.034 6.632 27.574C6.512 28.102 6.242 28.534 5.822 28.87C5.402 29.206 4.772 29.374 3.932 29.374H1.61V34H0.26V21.616ZM3.572 28.204C4.148 28.204 4.568 28.108 4.832 27.916C5.108 27.724 5.282 27.448 5.354 27.088C5.438 26.716 5.48 26.188 5.48 25.504C5.48 24.808 5.438 24.28 5.354 23.92C5.282 23.548 5.114 23.272 4.85 23.092C4.586 22.9 4.166 22.804 3.59 22.804H1.61V28.204H3.572ZM11.9032 28.564V27.412H15.0532V33.802C14.6332 33.898 14.1472 33.976 13.5952 34.036C13.0552 34.108 12.5752 34.144 12.1552 34.144C11.0632 34.144 10.2532 33.988 9.72519 33.676C9.19719 33.352 8.83119 32.752 8.62719 31.876C8.42319 31 8.32119 29.644 8.32119 27.808C8.32119 25.996 8.42319 24.652 8.62719 23.776C8.83119 22.9 9.19719 22.3 9.72519 21.976C10.2532 21.64 11.0692 21.472 12.1732 21.472C12.6532 21.472 13.1632 21.508 13.7032 21.58C14.2552 21.652 14.6932 21.73 15.0172 21.814V22.93C14.6932 22.858 14.2972 22.798 13.8292 22.75C13.3732 22.69 13.0072 22.66 12.7312 22.66C11.7592 22.66 11.0812 22.75 10.6972 22.93C10.3132 23.11 10.0492 23.542 9.90519 24.226C9.76119 24.91 9.68919 26.104 9.68919 27.808C9.68919 29.368 9.74319 30.496 9.85119 31.192C9.95919 31.876 10.1812 32.344 10.5172 32.596C10.8532 32.848 11.4052 32.974 12.1732 32.974C12.7972 32.974 13.3192 32.926 13.7392 32.83V28.564H11.9032ZM17.3284 21.616H20.2804C21.4804 21.616 22.3324 21.772 22.8364 22.084C23.3524 22.396 23.6824 22.96 23.8264 23.776C23.9824 24.58 24.0604 25.924 24.0604 27.808C24.0604 29.692 23.9824 31.042 23.8264 31.858C23.6824 32.662 23.3524 33.22 22.8364 33.532C22.3324 33.844 21.4804 34 20.2804 34H17.3284V21.616ZM20.2264 32.812C21.0544 32.812 21.6184 32.728 21.9184 32.56C22.2304 32.38 22.4404 31.966 22.5484 31.318C22.6564 30.67 22.7104 29.5 22.7104 27.808C22.7104 26.128 22.6564 24.964 22.5484 24.316C22.4404 23.656 22.2304 23.242 21.9184 23.074C21.6064 22.894 21.0424 22.804 20.2264 22.804H18.6604V32.812H20.2264ZM7.082 37.616V44.618C7.082 46.226 7.01 47.396 6.866 48.128C6.722 48.86 6.41 49.382 5.93 49.694C5.462 49.994 4.694 50.144 3.626 50.144C2.558 50.144 1.784 49.994 1.304 49.694C0.824 49.382 0.512 48.86 0.368 48.128C0.224 47.384 0.152 46.214 0.152 44.618V37.616H1.502V45.23C1.502 46.37 1.544 47.18 1.628 47.66C1.712 48.14 1.892 48.476 2.168 48.668C2.456 48.86 2.942 48.956 3.626 48.956C4.31 48.956 4.79 48.86 5.066 48.668C5.354 48.476 5.534 48.14 5.606 47.66C5.69 47.18 5.732 46.37 5.732 45.23V37.616H7.082ZM14.9781 50L13.4301 45.014H13.1781H10.8561V50H9.50609V37.616H13.2861C14.1381 37.616 14.7741 37.772 15.1941 38.084C15.6141 38.396 15.8841 38.81 16.0041 39.326C16.1361 39.842 16.2021 40.508 16.2021 41.324C16.2021 42.224 16.1061 42.968 15.9141 43.556C15.7341 44.132 15.3381 44.54 14.7261 44.78L16.4001 50H14.9781ZM12.9441 43.844C13.5081 43.844 13.9281 43.754 14.2041 43.574C14.4801 43.394 14.6541 43.136 14.7261 42.8C14.8101 42.452 14.8521 41.96 14.8521 41.324C14.8521 40.676 14.8101 40.184 14.7261 39.848C14.6541 39.512 14.4861 39.254 14.2221 39.074C13.9581 38.894 13.5381 38.804 12.9621 38.804H10.8561V43.844H12.9441ZM21.173 50.144C20.057 50.144 19.031 50.066 18.095 49.91V48.74C18.515 48.8 18.977 48.854 19.481 48.902C19.985 48.938 20.411 48.956 20.759 48.956C21.239 48.956 21.617 48.926 21.893 48.866C22.181 48.794 22.415 48.674 22.595 48.506C22.763 48.35 22.871 48.122 22.919 47.822C22.979 47.522 23.009 47.12 23.009 46.616C23.009 45.956 22.985 45.494 22.937 45.23C22.889 44.966 22.775 44.78 22.595 44.672C22.427 44.552 22.121 44.456 21.677 44.384L19.589 44.06C19.085 43.976 18.707 43.808 18.455 43.556C18.203 43.292 18.035 42.956 17.951 42.548C17.879 42.14 17.843 41.594 17.843 40.91C17.843 39.662 18.107 38.78 18.635 38.264C19.163 37.736 20.009 37.472 21.173 37.472C22.289 37.472 23.201 37.568 23.909 37.76V38.876C23.105 38.732 22.295 38.66 21.479 38.66C20.963 38.66 20.555 38.708 20.255 38.804C19.955 38.888 19.727 39.02 19.571 39.2C19.415 39.38 19.313 39.602 19.265 39.866C19.217 40.13 19.193 40.466 19.193 40.874C19.193 41.426 19.217 41.828 19.265 42.08C19.313 42.32 19.409 42.488 19.553 42.584C19.697 42.68 19.937 42.758 20.273 42.818L22.289 43.142C22.793 43.226 23.189 43.352 23.477 43.52C23.765 43.688 23.987 43.976 24.143 44.384C24.287 44.732 24.359 45.422 24.359 46.454C24.359 47.378 24.257 48.104 24.053 48.632C23.861 49.16 23.531 49.544 23.063 49.784C22.607 50.024 21.977 50.144 21.173 50.144ZM20.489 36.518L19.103 34.124V34.016H20.003L21.191 35.762L22.361 34.016H23.261V34.124L21.875 36.518H20.489ZM31.9975 50L27.7315 40.478H27.6595V50H26.3635V37.616H27.7855L31.9795 46.976H32.0515V37.616H33.3475V50H31.9975ZM41.7953 50L40.9313 46.562H37.1333L36.2873 50H34.9373L38.1773 37.616H39.9413L43.1813 50H41.7953ZM39.0773 39.254H38.9873L37.4573 45.374H40.6073L39.0773 39.254ZM51.0207 50.144C49.9047 50.144 48.8787 50.066 47.9427 49.91V48.74C48.3627 48.8 48.8247 48.854 49.3287 48.902C49.8327 48.938 50.2587 48.956 50.6067 48.956C51.0867 48.956 51.4647 48.926 51.7407 48.866C52.0287 48.794 52.2627 48.674 52.4427 48.506C52.6107 48.35 52.7187 48.122 52.7667 47.822C52.8267 47.522 52.8567 47.12 52.8567 46.616C52.8567 45.956 52.8327 45.494 52.7847 45.23C52.7367 44.966 52.6227 44.78 52.4427 44.672C52.2747 44.552 51.9687 44.456 51.5247 44.384L49.4367 44.06C48.9327 43.976 48.5547 43.808 48.3027 43.556C48.0507 43.292 47.8827 42.956 47.7987 42.548C47.7267 42.14 47.6907 41.594 47.6907 40.91C47.6907 39.662 47.9547 38.78 48.4827 38.264C49.0107 37.736 49.8567 37.472 51.0207 37.472C52.1367 37.472 53.0487 37.568 53.7567 37.76V38.876C52.9527 38.732 52.1427 38.66 51.3267 38.66C50.8107 38.66 50.4027 38.708 50.1027 38.804C49.8027 38.888 49.5747 39.02 49.4187 39.2C49.2627 39.38 49.1607 39.602 49.1127 39.866C49.0647 40.13 49.0407 40.466 49.0407 40.874C49.0407 41.426 49.0647 41.828 49.1127 42.08C49.1607 42.32 49.2567 42.488 49.4007 42.584C49.5447 42.68 49.7847 42.758 50.1207 42.818L52.1367 43.142C52.6407 43.226 53.0367 43.352 53.3247 43.52C53.6127 43.688 53.8347 43.976 53.9907 44.384C54.1347 44.732 54.2067 45.422 54.2067 46.454C54.2067 47.378 54.1047 48.104 53.9007 48.632C53.7087 49.16 53.3787 49.544 52.9107 49.784C52.4547 50.024 51.8247 50.144 51.0207 50.144ZM56.2112 50V37.616H62.0612V38.804H57.5612V43.142H61.4672V44.33H57.5612V48.812H62.0612V50H56.2112ZM63.9983 50V37.616H65.3483V48.776H69.3443V50H63.9983ZM76.7406 50L75.8766 46.562H72.0786L71.2326 50H69.8826L73.1226 37.616H74.8866L78.1266 50H76.7406ZM74.0226 39.254H73.9326L72.4026 45.374H75.5526L74.0226 39.254Z" fill="white"/>
</g>
<defs>
<filter id="filter0_d" x="0.1521" y="21.472" width="79.9746" height="31.672" filterUnits="userSpaceOnUse" color-interpolation-filters="sRGB">
<feFlood flood-opacity="0" result="BackgroundImageFix"/>
<feColorMatrix in="SourceAlpha" type="matrix" values="0 0 0 0 0 0 0 0 0 0 0 0 0 0 0 0 0 0 127 0"/>
<feOffset dx="1" dy="2"/>
<feGaussianBlur stdDeviation="0.5"/>
<feColorMatrix type="matrix" values="0 0 0 0 0 0 0 0 0 0 0 0 0 0 0 0 0 0 0.5 0"/>
<feBlend mode="normal" in2="BackgroundImageFix" result="effect1_dropShadow"/>
<feBlend mode="normal" in="SourceGraphic" in2="effect1_dropShadow" result="shape"/>
</filter>
</defs>
</svg>
