<svg width="101" height="80" viewBox="0 0 101 80" fill="none" xmlns="http://www.w3.org/2000/svg">
<path d="M7.164 6.288C7.164 6.776 7.052 7.224 6.828 7.632C6.604 8.032 6.26 8.356 5.796 8.604C5.332 8.852 4.756 8.976 4.068 8.976H2.796V12H0.744V3.576H4.068C4.74 3.576 5.308 3.692 5.772 3.924C6.236 4.156 6.584 4.476 6.816 4.884C7.048 5.292 7.164 5.76 7.164 6.288ZM3.912 7.344C4.304 7.344 4.596 7.252 4.788 7.068C4.98 6.884 5.076 6.624 5.076 6.288C5.076 5.952 4.98 5.692 4.788 5.508C4.596 5.324 4.304 5.232 3.912 5.232H2.796V7.344H3.912ZM13.8243 6.24C13.6723 5.96 13.4523 5.748 13.1643 5.604C12.8843 5.452 12.5523 5.376 12.1683 5.376C11.5043 5.376 10.9723 5.596 10.5723 6.036C10.1723 6.468 9.97228 7.048 9.97228 7.776C9.97228 8.552 10.1803 9.16 10.5963 9.6C11.0203 10.032 11.6003 10.248 12.3363 10.248C12.8403 10.248 13.2643 10.12 13.6083 9.864C13.9603 9.608 14.2163 9.24 14.3763 8.76H11.7723V7.248H16.2363V9.156C16.0843 9.668 15.8243 10.144 15.4563 10.584C15.0963 11.024 14.6363 11.38 14.0763 11.652C13.5163 11.924 12.8843 12.06 12.1803 12.06C11.3483 12.06 10.6043 11.88 9.94828 11.52C9.30028 11.152 8.79228 10.644 8.42428 9.996C8.06428 9.348 7.88428 8.608 7.88428 7.776C7.88428 6.944 8.06428 6.204 8.42428 5.556C8.79228 4.9 9.30028 4.392 9.94828 4.032C10.5963 3.664 11.3363 3.48 12.1683 3.48C13.1763 3.48 14.0243 3.724 14.7123 4.212C15.4083 4.7 15.8683 5.376 16.0923 6.24H13.8243ZM20.5289 3.576C21.4169 3.576 22.1929 3.752 22.8569 4.104C23.5209 4.456 24.0329 4.952 24.3929 5.592C24.7609 6.224 24.9449 6.956 24.9449 7.788C24.9449 8.612 24.7609 9.344 24.3929 9.984C24.0329 10.624 23.5169 11.12 22.8449 11.472C22.1809 11.824 21.4089 12 20.5289 12H17.3729V3.576H20.5289ZM20.3969 10.224C21.1729 10.224 21.7769 10.012 22.2089 9.588C22.6409 9.164 22.8569 8.564 22.8569 7.788C22.8569 7.012 22.6409 6.408 22.2089 5.976C21.7769 5.544 21.1729 5.328 20.3969 5.328H19.4249V10.224H20.3969ZM30.6506 3.576V8.616C30.6506 9.12 30.7746 9.508 31.0226 9.78C31.2706 10.052 31.6346 10.188 32.1146 10.188C32.5946 10.188 32.9626 10.052 33.2186 9.78C33.4746 9.508 33.6026 9.12 33.6026 8.616V3.576H35.6546V8.604C35.6546 9.356 35.4946 9.992 35.1746 10.512C34.8546 11.032 34.4226 11.424 33.8786 11.688C33.3426 11.952 32.7426 12.084 32.0786 12.084C31.4146 12.084 30.8186 11.956 30.2906 11.7C29.7706 11.436 29.3586 11.044 29.0546 10.524C28.7506 9.996 28.5986 9.356 28.5986 8.604V3.576H30.6506ZM41.3916 12L39.6396 8.82H39.1476V12H37.0956V3.576H40.5396C41.2036 3.576 41.7676 3.692 42.2316 3.924C42.7036 4.156 43.0556 4.476 43.2876 4.884C43.5196 5.284 43.6356 5.732 43.6356 6.228C43.6356 6.788 43.4756 7.288 43.1556 7.728C42.8436 8.168 42.3796 8.48 41.7636 8.664L43.7076 12H41.3916ZM39.1476 7.368H40.4196C40.7956 7.368 41.0756 7.276 41.2596 7.092C41.4516 6.908 41.5476 6.648 41.5476 6.312C41.5476 5.992 41.4516 5.74 41.2596 5.556C41.0756 5.372 40.7956 5.28 40.4196 5.28H39.1476V7.368ZM47.9717 12.084C47.3557 12.084 46.8037 11.984 46.3157 11.784C45.8277 11.584 45.4357 11.288 45.1397 10.896C44.8517 10.504 44.6997 10.032 44.6837 9.48H46.8677C46.8997 9.792 47.0077 10.032 47.1917 10.2C47.3757 10.36 47.6157 10.44 47.9117 10.44C48.2157 10.44 48.4557 10.372 48.6317 10.236C48.8077 10.092 48.8957 9.896 48.8957 9.648C48.8957 9.44 48.8237 9.268 48.6797 9.132C48.5437 8.996 48.3717 8.884 48.1637 8.796C47.9637 8.708 47.6757 8.608 47.2997 8.496C46.7557 8.328 46.3117 8.16 45.9677 7.992C45.6237 7.824 45.3277 7.576 45.0797 7.248C44.8317 6.92 44.7077 6.492 44.7077 5.964C44.7077 5.18 44.9917 4.568 45.5597 4.128C46.1277 3.68 46.8677 3.456 47.7797 3.456C48.7077 3.456 49.4557 3.68 50.0237 4.128C50.5917 4.568 50.8957 5.184 50.9357 5.976H48.7157C48.6997 5.704 48.5997 5.492 48.4157 5.34C48.2317 5.18 47.9957 5.1 47.7077 5.1C47.4597 5.1 47.2597 5.168 47.1077 5.304C46.9557 5.432 46.8797 5.62 46.8797 5.868C46.8797 6.14 47.0077 6.352 47.2637 6.504C47.5197 6.656 47.9197 6.82 48.4637 6.996C49.0077 7.18 49.4477 7.356 49.7837 7.524C50.1277 7.692 50.4237 7.936 50.6717 8.256C50.9197 8.576 51.0437 8.988 51.0437 9.492C51.0437 9.972 50.9197 10.408 50.6717 10.8C50.4317 11.192 50.0797 11.504 49.6157 11.736C49.1517 11.968 48.6037 12.084 47.9717 12.084ZM49.7117 2.1L47.8517 3.048L45.9917 2.1V0.684L47.8517 1.728L49.7117 0.684V2.1ZM59.8425 12H57.7905L54.3585 6.804V12H52.3065V3.576H54.3585L57.7905 8.796V3.576H59.8425V12ZM66.5739 10.512H63.4299L62.9259 12H60.7779L63.8259 3.576H66.2019L69.2499 12H67.0779L66.5739 10.512ZM66.0459 8.928L65.0019 5.844L63.9699 8.928H66.0459ZM75.7686 12.084C75.1526 12.084 74.6006 11.984 74.1126 11.784C73.6246 11.584 73.2326 11.288 72.9366 10.896C72.6486 10.504 72.4966 10.032 72.4806 9.48H74.6646C74.6966 9.792 74.8046 10.032 74.9886 10.2C75.1726 10.36 75.4126 10.44 75.7086 10.44C76.0126 10.44 76.2526 10.372 76.4286 10.236C76.6046 10.092 76.6926 9.896 76.6926 9.648C76.6926 9.44 76.6206 9.268 76.4766 9.132C76.3406 8.996 76.1686 8.884 75.9606 8.796C75.7606 8.708 75.4726 8.608 75.0966 8.496C74.5526 8.328 74.1086 8.16 73.7646 7.992C73.4206 7.824 73.1246 7.576 72.8766 7.248C72.6286 6.92 72.5046 6.492 72.5046 5.964C72.5046 5.18 72.7886 4.568 73.3566 4.128C73.9246 3.68 74.6646 3.456 75.5766 3.456C76.5046 3.456 77.2526 3.68 77.8206 4.128C78.3886 4.568 78.6926 5.184 78.7326 5.976H76.5126C76.4966 5.704 76.3966 5.492 76.2126 5.34C76.0286 5.18 75.7926 5.1 75.5046 5.1C75.2566 5.1 75.0566 5.168 74.9046 5.304C74.7526 5.432 74.6766 5.62 74.6766 5.868C74.6766 6.14 74.8046 6.352 75.0606 6.504C75.3166 6.656 75.7166 6.82 76.2606 6.996C76.8046 7.18 77.2446 7.356 77.5806 7.524C77.9246 7.692 78.2206 7.936 78.4686 8.256C78.7166 8.576 78.8406 8.988 78.8406 9.492C78.8406 9.972 78.7166 10.408 78.4686 10.8C78.2286 11.192 77.8766 11.504 77.4126 11.736C76.9486 11.968 76.4006 12.084 75.7686 12.084ZM82.1554 5.22V6.924H84.9034V8.508H82.1554V10.356H85.2634V12H80.1034V3.576H85.2634V5.22H82.1554ZM88.6476 10.416H91.3356V12H86.5956V3.576H88.6476V10.416ZM97.5583 10.512H94.4143L93.9103 12H91.7623L94.8103 3.576H97.1863L100.234 12H98.0623L97.5583 10.512ZM97.0303 8.928L95.9863 5.844L94.9543 8.928H97.0303Z" fill="white"/>
<g filter="url(#filter0_d)">
<path d="M39.0819 77C26.7888 70.0717 23.5523 63.5139 25.4027 54.5574C26.7688 47.9439 31.2418 42.5631 31.6707 35.9622C33.5815 39.4394 34.3799 41.9468 34.5934 45.5805C40.6705 38.1348 44.6864 27.8273 44.9242 17C44.9242 17 60.753 26.3005 61.7916 40.349C63.1543 37.4534 63.8402 32.8544 62.4776 29.8738C66.5654 32.8546 90.4922 59.3157 59.2367 77C65.113 65.5581 60.7527 50.1194 50.5497 42.9891C51.2311 46.055 50.0365 57.4902 45.5226 62.5149C46.7733 54.119 44.3326 50.569 44.3326 50.569C44.3326 50.569 43.4949 55.2716 40.2447 60.0222C37.2767 64.3603 35.2202 68.9646 39.0819 77Z" fill="white"/>
</g>
<defs>
<filter id="filter0_d" x="20" y="17" width="62" height="63" filterUnits="userSpaceOnUse" color-interpolation-filters="sRGB">
<feFlood flood-opacity="0" result="BackgroundImageFix"/>
<feColorMatrix in="SourceAlpha" type="matrix" values="0 0 0 0 0 0 0 0 0 0 0 0 0 0 0 0 0 0 127 0"/>
<feOffset dx="1" dy="2"/>
<feGaussianBlur stdDeviation="0.5"/>
<feColorMatrix type="matrix" values="0 0 0 0 0 0 0 0 0 0 0 0 0 0 0 0 0 0 0.5 0"/>
<feBlend mode="normal" in2="BackgroundImageFix" result="effect1_dropShadow"/>
<feBlend mode="normal" in="SourceGraphic" in2="effect1_dropShadow" result="shape"/>
</filter>
</defs>
</svg>
